<?xml version="1.0" encoding="utf-8"?>
<!-- Generator: Adobe Illustrator 19.0.0, SVG Export Plug-In . SVG Version: 6.00 Build 0)  -->
<svg xmlns="http://www.w3.org/2000/svg" xmlns:xlink="http://www.w3.org/1999/xlink" version="1.1" id="Layer_2_copy" x="0px" y="0px" viewBox="0 0 1400 980" style="enable-background:new 0 0 1400 980;" xml:space="preserve">
<style type="text/css">
	.st0{fill:#47D6C2;}
	.st1{fill:#4187BB;}
</style>
<g>
	
	<g>
		<g>
			<g>
				<path class="st1" d="M194.5,181.8c0,33.6,27.4,61,61,61s61-27.4,61-61s-27.4-61-61-61S194.5,148.1,194.5,181.8z M255.5,128.8      c29.2,0,53,23.8,53,53s-23.8,53-53,53s-53-23.8-53-53S226.2,128.8,255.5,128.8z"/>
				<path class="st1" d="M294.5,192.6c-2.1-0.8-4.4,0.2-5.2,2.3c-1.2,3-2.8,5.9-4.7,8.5c-1.3,1.8-1,4.3,0.8,5.6      c0.7,0.5,1.6,0.8,2.4,0.8c1.2,0,2.4-0.6,3.2-1.6c2.4-3.2,4.3-6.7,5.7-10.4C297.6,195.7,296.5,193.4,294.5,192.6z"/>
				<path class="st1" d="M227.6,158.4c6.9-8.3,17.1-13,27.8-13c16.4,0,30.8,11,35.1,26.8c0.5,1.8,2.1,3,3.9,3c0.3,0,0.7,0,1-0.1      c2.1-0.6,3.4-2.8,2.8-4.9c-5.2-19.3-22.8-32.7-42.8-32.7c-13.1,0-25.5,5.8-34,15.8c-1.4,1.7-1.2,4.2,0.5,5.6      C223.7,160.4,226.2,160.1,227.6,158.4z"/>
				<path class="st1" d="M255.5,158.6c-12.8,0-23.1,10.4-23.1,23.1s10.4,23.1,23.1,23.1c12.8,0,23.1-10.4,23.1-23.1      S268.2,158.6,255.5,158.6z M255.5,196.9c-8.3,0-15.1-6.8-15.1-15.1c0-8.3,6.8-15.1,15.1-15.1c8.3,0,15.1,6.8,15.1,15.1      C270.6,190.1,263.8,196.9,255.5,196.9z"/>
				<path class="st1" d="M260.8,289.8v117.6c0,8.6,7,15.5,15.5,15.5h63.4v23h-25.1c-2.2,0-4,1.8-4,4v20c0,2.2,1.8,4,4,4h89.2      c2.2,0,4-1.8,4-4v-20c0-2.2-1.8-4-4-4h-25.1v-23h63.4c8.6,0,15.5-7,15.5-15.5V289.8c0-8.6-7-15.5-15.5-15.5H276.3      C267.7,274.3,260.8,281.3,260.8,289.8z M399.8,466h-81.2v-12h25.1h31h25.1V466z M370.7,446h-23v-23h23V446z M442.1,415h-67.4      h-31h-67.4c-4.2,0-7.5-3.4-7.5-7.5v-17.4h180.8v17.4C449.6,411.6,446.2,415,442.1,415z M449.6,289.8v92.2H268.8v-92.2      c0-4.2,3.4-7.5,7.5-7.5h165.8C446.2,282.3,449.6,285.7,449.6,289.8z"/>
				<path class="st1" d="M179.3,355.7v-77.4c0-2.2-1.8-4-4-4H31.5c-2.2,0-4,1.8-4,4v77.4c0,2.2,1.8,4,4,4h143.8      C177.5,359.7,179.3,357.9,179.3,355.7z M171.3,351.7H35.5v-69.4h135.8V351.7z"/>
				<path class="st1" d="M56.2,315.1h11.9c3,0,5.4-2.4,5.4-5.4v-11.9c0-3-2.4-5.4-5.4-5.4H56.2c-3,0-5.4,2.4-5.4,5.4v11.9      C50.8,312.7,53.2,315.1,56.2,315.1z"/>
				<path class="st1" d="M83.7,315.1h11.9c3,0,5.4-2.4,5.4-5.4v-11.9c0-3-2.4-5.4-5.4-5.4H83.7c-3,0-5.4,2.4-5.4,5.4v11.9      C78.3,312.7,80.7,315.1,83.7,315.1z"/>
				<path class="st1" d="M111.2,315.1h11.9c3,0,5.4-2.4,5.4-5.4v-11.9c0-3-2.4-5.4-5.4-5.4h-11.9c-3,0-5.4,2.4-5.4,5.4v11.9      C105.8,312.7,108.2,315.1,111.2,315.1z"/>
				<path class="st1" d="M138.7,315.1h11.9c3,0,5.4-2.4,5.4-5.4v-11.9c0-3-2.4-5.4-5.4-5.4h-11.9c-3,0-5.4,2.4-5.4,5.4v11.9      C133.3,312.7,135.7,315.1,138.7,315.1z"/>
				<path class="st1" d="M56.2,341.6h11.9c3,0,5.4-2.4,5.4-5.4v-11.9c0-3-2.4-5.4-5.4-5.4H56.2c-3,0-5.4,2.4-5.4,5.4v11.9      C50.8,339.2,53.2,341.6,56.2,341.6z"/>
				<path class="st1" d="M138.7,341.6h11.9c3,0,5.4-2.4,5.4-5.4v-11.9c0-3-2.4-5.4-5.4-5.4h-11.9c-3,0-5.4,2.4-5.4,5.4v11.9      C133.3,339.2,135.7,341.6,138.7,341.6z"/>
				<path class="st1" d="M83.7,341.6h39.4c3,0,5.4-2.4,5.4-5.4v-11.9c0-3-2.4-5.4-5.4-5.4H83.7c-3,0-5.4,2.4-5.4,5.4v11.9      C78.3,339.2,80.7,341.6,83.7,341.6z"/>
				<path class="st1" d="M84.5,462.2v-66.4c0-7.1-5.7-12.8-12.8-12.8H38.5c-7.1,0-12.8,5.7-12.8,12.8v66.4c0,7.1,5.7,12.8,12.8,12.8      h33.2C78.8,475,84.5,469.2,84.5,462.2z M33.7,462.2v-66.4c0-2.7,2.2-4.8,4.8-4.8h12.6v13.3c-1.8,1.3-3,3.4-3,5.7      c0,2.4,1.2,4.5,3,5.7v7.8c0,2.2,1.8,4,4,4c2.2,0,4-1.8,4-4v-7.8c1.8-1.3,3-3.4,3-5.7s-1.2-4.5-3-5.7V391h12.6      c2.7,0,4.8,2.2,4.8,4.8v66.4c0,2.7-2.2,4.8-4.8,4.8H38.5C35.8,467,33.7,464.8,33.7,462.2z"/>
				<path class="st1" d="M338.7,105.9c23.7,0,43-19.3,43-43c0-23.7-19.3-43-43-43s-43,19.3-43,43      C295.7,86.6,314.9,105.9,338.7,105.9z M338.7,27.9c19.3,0,35,15.7,35,35s-15.7,35-35,35s-35-15.7-35-35S319.4,27.9,338.7,27.9z"/>
				<path class="st1" d="M338.7,87c13.3,0,24.1-10.8,24.1-24.1c0-6.6-2.7-13-7.5-17.5c-1.6-1.5-4.1-1.5-5.7,0.2      c-1.5,1.6-1.5,4.1,0.2,5.7c3.2,3.1,5,7.2,5,11.7c0,8.9-7.2,16.1-16.1,16.1c-8.9,0-16.1-7.2-16.1-16.1c0-4.5,1.8-8.6,5-11.7      c1.6-1.5,1.7-4.1,0.2-5.7c-1.5-1.6-4.1-1.7-5.7-0.2c-4.9,4.6-7.5,10.8-7.5,17.5C314.6,76.2,325.4,87,338.7,87z"/>
				<path class="st1" d="M338.7,60c2.2,0,4-1.8,4-4V37.7c0-2.2-1.8-4-4-4c-2.2,0-4,1.8-4,4V56C334.7,58.2,336.4,60,338.7,60z"/>
				<path class="st1" d="M154.7,199.4v-65.3c0-12.2-9.9-22-22-22H89.3V65.5c0-2.2-1.8-4-4-4h-80c-2.2,0-4,1.8-4,4v46.7H0v8h1.3v25.3      c0,2.2,1.8,4,4,4h80c2.2,0,4-1.8,4-4v-25.3h43.3c7.7,0,14.1,6.3,14.1,14v65.3c0,7.7-6.3,14.1-14.1,14.1H0v8h132.6      C144.8,221.5,154.7,211.6,154.7,199.4z M81.3,141.5h-72v-25.3V69.5h72v46.7V141.5z"/>
				<path class="st1" d="M401.3,134.2v65.3c0,12.2,9.9,22,22,22h43.3v-8h-43.3c-7.7,0-14-6.3-14-14.1v-65.3c0-7.7,6.3-14,14-14h43.3      v-8h-43.3C411.2,112.1,401.3,122,401.3,134.2z"/>
				<path class="st1" d="M68,78.1H22.7c-2.2,0-4,1.8-4,4s1.8,4,4,4H68c2.2,0,4-1.8,4-4S70.2,78.1,68,78.1z"/>
				<path class="st1" d="M68,96.8H22.7c-2.2,0-4,1.8-4,4c0,2.2,1.8,4,4,4H68c2.2,0,4-1.8,4-4C72,98.6,70.2,96.8,68,96.8z"/>
				<path class="st1" d="M68,115.5H22.7c-2.2,0-4,1.8-4,4c0,2.2,1.8,4,4,4H68c2.2,0,4-1.8,4-4C72,117.3,70.2,115.5,68,115.5z"/>
				<circle class="st1" cx="129.9" cy="136.2" r="4.7"/>
				<circle class="st1" cx="129.9" cy="154.7" r="4.7"/>
				<path class="st1" d="M105.8,27.2h44.9v34.2c0,2.2,1.8,4,4,4H216v4.6c0,2.2,1.8,4,4,4h17.2c2.2,0,4-1.8,4-4V52.9c0-2.2-1.8-4-4-4      H220c-2.2,0-4,1.8-4,4v4.6h-57.3V23.2c0-2.2-1.8-4-4-4h-48.9c-2.2,0-4,1.8-4,4C101.8,25.5,103.6,27.2,105.8,27.2z M224,56.9h9.2      v9.2H224V56.9z"/>
				<path class="st1" d="M206.6,452.6h17.2c2.2,0,4-1.8,4-4v-17.2c0-2.2-1.8-4-4-4h-17.2c-2.2,0-4,1.8-4,4v4.6h-85.5      c-2.2,0-4,1.8-4,4c0,2.2,1.8,4,4,4h85.5v4.6C202.6,450.8,204.4,452.6,206.6,452.6z M210.6,435.4h9.2v9.2h-9.2V435.4z"/>
				<path class="st1" d="M378.7,132.2c-2.2,0-4,1.8-4,4v21.6L362,170.5c-0.7,0.7-1.2,1.8-1.2,2.8V245c0,2.2,1.8,4,4,4      c2.2,0,4-1.8,4-4v-70l12.7-12.7c0.7-0.7,1.2-1.8,1.2-2.8v-23.2C382.7,134,380.9,132.2,378.7,132.2z"/>
				<path class="st1" d="M346.7,231.6V122.5c0-2.2-1.8-4-4-4c-2.2,0-4,1.8-4,4v109.1c0,2.2,1.8,4,4,4      C344.9,235.6,346.7,233.8,346.7,231.6z"/>
				<path class="st1" d="M167.2,403.2l-12.9,12.9h-37.2c-2.2,0-4,1.8-4,4c0,2.2,1.8,4,4,4H156c1.1,0,2.1-0.4,2.8-1.2l12.9-12.9h61.6      c2.2,0,4-1.8,4-4c0-2.2-1.8-4-4-4H170C169,402,168,402.4,167.2,403.2z"/>
				<path class="st1" d="M237.3,301.5c0-7.2-5.9-13-13-13s-13,5.9-13,13s5.9,13,13,13S237.3,308.7,237.3,301.5z M219.2,301.5      c0-2.8,2.3-5,5-5s5,2.3,5,5c0,2.8-2.3,5-5,5S219.2,304.3,219.2,301.5z"/>
				<path class="st1" d="M424.9,57.4c7.2,0,13-5.9,13-13s-5.9-13-13-13s-13,5.9-13,13S417.7,57.4,424.9,57.4z M424.9,39.3      c2.8,0,5,2.3,5,5s-2.3,5-5,5s-5-2.3-5-5S422.2,39.3,424.9,39.3z"/>
				<circle class="st1" cx="198.5" cy="100.8" r="8.6"/>
				<circle class="st1" cx="274.6" cy="19.9" r="8.6"/>
				<circle class="st1" cx="268.8" cy="454" r="8.6"/>
				<circle class="st1" cx="175.2" cy="245" r="8.6"/>
				<path class="st1" d="M85,245c0-7.2-5.9-13-13-13c-7.2,0-13,5.9-13,13s5.9,13,13,13C79.2,258,85,252.2,85,245z M67,245      c0-2.8,2.3-5,5-5c2.8,0,5,2.3,5,5s-2.3,5-5,5C69.2,250,67,247.8,67,245z"/>
				<path class="st1" d="M447,245c0-7.2-5.9-13-13-13c-7.2,0-13,5.9-13,13s5.9,13,13,13C441.2,258,447,252.2,447,245z M428.9,245      c0-2.8,2.3-5,5-5c2.8,0,5,2.3,5,5s-2.3,5-5,5C431.2,250,428.9,247.8,428.9,245z"/>
				<path class="st1" d="M447,460c0-7.2-5.9-13-13-13c-7.2,0-13,5.9-13,13s5.9,13,13,13C441.2,473,447,467.2,447,460z M434,465      c-2.8,0-5-2.3-5-5s2.3-5,5-5c2.8,0,5,2.3,5,5S436.8,465,434,465z"/>
				<path class="st1" d="M42.7,36.3c7.2,0,13-5.9,13-13s-5.9-13-13-13s-13,5.9-13,13S35.5,36.3,42.7,36.3z M42.7,18.2      c2.8,0,5,2.3,5,5s-2.3,5-5,5s-5-2.3-5-5S39.9,18.2,42.7,18.2z"/>
				<path class="st1" d="M661.1,181.8c0,33.6,27.4,61,61,61s61-27.4,61-61s-27.4-61-61-61S661.1,148.1,661.1,181.8z M722.1,128.8      c29.2,0,53,23.8,53,53s-23.8,53-53,53s-53-23.8-53-53S692.9,128.8,722.1,128.8z"/>
				<path class="st1" d="M761.2,192.6c-2.1-0.8-4.4,0.2-5.2,2.3c-1.2,3-2.8,5.9-4.7,8.5c-1.3,1.8-1,4.3,0.8,5.6      c0.7,0.5,1.6,0.8,2.4,0.8c1.2,0,2.4-0.6,3.2-1.6c2.4-3.2,4.3-6.7,5.7-10.4C764.2,195.7,763.2,193.4,761.2,192.6z"/>
				<path class="st1" d="M694.3,158.4c6.9-8.3,17.1-13,27.8-13c16.4,0,30.8,11,35.1,26.8c0.5,1.8,2.1,3,3.9,3c0.3,0,0.7,0,1-0.1      c2.1-0.6,3.4-2.8,2.8-4.9c-5.2-19.3-22.8-32.7-42.8-32.7c-13.1,0-25.5,5.8-34,15.8c-1.4,1.7-1.2,4.2,0.5,5.6      C690.4,160.4,692.9,160.1,694.3,158.4z"/>
				<path class="st1" d="M722.1,158.6c-12.8,0-23.1,10.4-23.1,23.1s10.4,23.1,23.1,23.1s23.1-10.4,23.1-23.1      S734.9,158.6,722.1,158.6z M722.1,196.9c-8.3,0-15.1-6.8-15.1-15.1c0-8.3,6.8-15.1,15.1-15.1c8.3,0,15.1,6.8,15.1,15.1      C737.3,190.1,730.5,196.9,722.1,196.9z"/>
				<path class="st1" d="M727.4,289.8v117.6c0,8.6,7,15.5,15.5,15.5h63.4v23h-25.1c-2.2,0-4,1.8-4,4v20c0,2.2,1.8,4,4,4h89.2      c2.2,0,4-1.8,4-4v-20c0-2.2-1.8-4-4-4h-25.1v-23h63.4c8.6,0,15.5-7,15.5-15.5V289.8c0-8.6-7-15.5-15.5-15.5H743      C734.4,274.3,727.4,281.3,727.4,289.8z M866.4,466h-81.2v-12h25.1h31h25.1V466z M837.4,446h-23v-23h23V446z M908.7,415h-67.4      h-31H743c-4.2,0-7.5-3.4-7.5-7.5v-17.4h180.8v17.4C916.3,411.6,912.9,415,908.7,415z M916.3,289.8v92.2H735.4v-92.2      c0-4.2,3.4-7.5,7.5-7.5h165.8C912.9,282.3,916.3,285.7,916.3,289.8z"/>
				<path class="st1" d="M646,355.7v-77.4c0-2.2-1.8-4-4-4H498.2c-2.2,0-4,1.8-4,4v77.4c0,2.2,1.8,4,4,4H642      C644.2,359.7,646,357.9,646,355.7z M638,351.7H502.2v-69.4H638V351.7z"/>
				<path class="st1" d="M522.9,315.1h11.9c3,0,5.4-2.4,5.4-5.4v-11.9c0-3-2.4-5.4-5.4-5.4h-11.9c-3,0-5.4,2.4-5.4,5.4v11.9      C517.5,312.7,519.9,315.1,522.9,315.1z"/>
				<path class="st1" d="M550.4,315.1h11.9c3,0,5.4-2.4,5.4-5.4v-11.9c0-3-2.4-5.4-5.4-5.4h-11.9c-3,0-5.4,2.4-5.4,5.4v11.9      C545,312.7,547.4,315.1,550.4,315.1z"/>
				<path class="st1" d="M577.9,315.1h11.9c3,0,5.4-2.4,5.4-5.4v-11.9c0-3-2.4-5.4-5.4-5.4h-11.9c-3,0-5.4,2.4-5.4,5.4v11.9      C572.5,312.7,574.9,315.1,577.9,315.1z"/>
				<path class="st1" d="M605.4,315.1h11.9c3,0,5.4-2.4,5.4-5.4v-11.9c0-3-2.4-5.4-5.4-5.4h-11.9c-3,0-5.4,2.4-5.4,5.4v11.9      C600,312.7,602.4,315.1,605.4,315.1z"/>
				<path class="st1" d="M522.9,341.6h11.9c3,0,5.4-2.4,5.4-5.4v-11.9c0-3-2.4-5.4-5.4-5.4h-11.9c-3,0-5.4,2.4-5.4,5.4v11.9      C517.5,339.2,519.9,341.6,522.9,341.6z"/>
				<path class="st1" d="M605.4,341.6h11.9c3,0,5.4-2.4,5.4-5.4v-11.9c0-3-2.4-5.4-5.4-5.4h-11.9c-3,0-5.4,2.4-5.4,5.4v11.9      C600,339.2,602.4,341.6,605.4,341.6z"/>
				<path class="st1" d="M550.4,341.6h39.4c3,0,5.4-2.4,5.4-5.4v-11.9c0-3-2.4-5.4-5.4-5.4h-39.4c-3,0-5.4,2.4-5.4,5.4v11.9      C545,339.2,547.4,341.6,550.4,341.6z"/>
				<path class="st1" d="M551.2,462.2v-66.4c0-7.1-5.7-12.8-12.8-12.8h-33.2c-7.1,0-12.8,5.7-12.8,12.8v66.4      c0,7.1,5.7,12.8,12.8,12.8h33.2C545.5,475,551.2,469.2,551.2,462.2z M500.3,462.2v-66.4c0-2.7,2.2-4.8,4.8-4.8h12.6v13.3      c-1.8,1.3-3,3.4-3,5.7c0,2.4,1.2,4.5,3,5.7v7.8c0,2.2,1.8,4,4,4c2.2,0,4-1.8,4-4v-7.8c1.8-1.3,3-3.4,3-5.7s-1.2-4.5-3-5.7V391      h12.6c2.7,0,4.8,2.2,4.8,4.8v66.4c0,2.7-2.2,4.8-4.8,4.8h-33.2C502.5,467,500.3,464.8,500.3,462.2z"/>
				<path class="st1" d="M805.3,105.9c23.7,0,43-19.3,43-43c0-23.7-19.3-43-43-43s-43,19.3-43,43      C762.3,86.6,781.6,105.9,805.3,105.9z M805.3,27.9c19.3,0,35,15.7,35,35s-15.7,35-35,35s-35-15.7-35-35S786,27.9,805.3,27.9z"/>
				<path class="st1" d="M805.3,87c13.3,0,24.1-10.8,24.1-24.1c0-6.6-2.7-13-7.5-17.5c-1.6-1.5-4.1-1.5-5.7,0.2      c-1.5,1.6-1.5,4.1,0.2,5.7c3.2,3.1,5,7.2,5,11.7c0,8.9-7.2,16.1-16.1,16.1c-8.9,0-16.1-7.2-16.1-16.1c0-4.5,1.8-8.6,5-11.7      c1.6-1.5,1.7-4.1,0.2-5.7c-1.5-1.6-4.1-1.7-5.7-0.2c-4.9,4.6-7.5,10.8-7.5,17.5C781.3,76.2,792.1,87,805.3,87z"/>
				<path class="st1" d="M805.3,60c2.2,0,4-1.8,4-4V37.7c0-2.2-1.8-4-4-4c-2.2,0-4,1.8-4,4V56C801.3,58.2,803.1,60,805.3,60z"/>
				<path class="st1" d="M621.3,199.4v-65.3c0-12.2-9.9-22-22-22H556V65.5c0-2.2-1.8-4-4-4h-80c-2.2,0-4,1.8-4,4v46.7h-1.3v8h1.3      v25.3c0,2.2,1.8,4,4,4h80c2.2,0,4-1.8,4-4v-25.3h43.3c7.7,0,14.1,6.3,14.1,14v65.3c0,7.7-6.3,14.1-14.1,14.1H466.7v8h132.6      C611.4,221.5,621.3,211.6,621.3,199.4z M548,141.5h-72v-25.3V69.5h72v46.7V141.5z"/>
				<path class="st1" d="M868,134.2v65.3c0,12.2,9.9,22,22,22h43.3v-8H890c-7.7,0-14-6.3-14-14.1v-65.3c0-7.7,6.3-14,14-14h43.3v-8      H890C877.9,112.1,868,122,868,134.2z"/>
				<path class="st1" d="M534.7,78.1h-45.3c-2.2,0-4,1.8-4,4s1.8,4,4,4h45.3c2.2,0,4-1.8,4-4S536.9,78.1,534.7,78.1z"/>
				<path class="st1" d="M534.7,96.8h-45.3c-2.2,0-4,1.8-4,4c0,2.2,1.8,4,4,4h45.3c2.2,0,4-1.8,4-4      C538.7,98.6,536.9,96.8,534.7,96.8z"/>
				<path class="st1" d="M534.7,115.5h-45.3c-2.2,0-4,1.8-4,4c0,2.2,1.8,4,4,4h45.3c2.2,0,4-1.8,4-4      C538.7,117.3,536.9,115.5,534.7,115.5z"/>
				<circle class="st1" cx="596.6" cy="136.2" r="4.7"/>
				<circle class="st1" cx="596.6" cy="154.7" r="4.7"/>
				<path class="st1" d="M572.5,27.2h44.9v34.2c0,2.2,1.8,4,4,4h61.3v4.6c0,2.2,1.8,4,4,4h17.2c2.2,0,4-1.8,4-4V52.9      c0-2.2-1.8-4-4-4h-17.2c-2.2,0-4,1.8-4,4v4.6h-57.3V23.2c0-2.2-1.8-4-4-4h-48.9c-2.2,0-4,1.8-4,4      C568.5,25.5,570.3,27.2,572.5,27.2z M690.6,56.9h9.2v9.2h-9.2V56.9z"/>
				<path class="st1" d="M673.3,452.6h17.2c2.2,0,4-1.8,4-4v-17.2c0-2.2-1.8-4-4-4h-17.2c-2.2,0-4,1.8-4,4v4.6h-85.5      c-2.2,0-4,1.8-4,4c0,2.2,1.8,4,4,4h85.5v4.6C669.3,450.8,671.1,452.6,673.3,452.6z M677.3,435.4h9.2v9.2h-9.2V435.4z"/>
				<path class="st1" d="M845.4,132.2c-2.2,0-4,1.8-4,4v21.6l-12.7,12.7c-0.7,0.7-1.2,1.8-1.2,2.8V245c0,2.2,1.8,4,4,4      c2.2,0,4-1.8,4-4v-70l12.7-12.7c0.7-0.7,1.2-1.8,1.2-2.8v-23.2C849.4,134,847.6,132.2,845.4,132.2z"/>
				<path class="st1" d="M813.3,231.6V122.5c0-2.2-1.8-4-4-4c-2.2,0-4,1.8-4,4v109.1c0,2.2,1.8,4,4,4      C811.5,235.6,813.3,233.8,813.3,231.6z"/>
				<path class="st1" d="M633.9,403.2L621,416.1h-37.2c-2.2,0-4,1.8-4,4c0,2.2,1.8,4,4,4h38.8c1.1,0,2.1-0.4,2.8-1.2l12.9-12.9H700      c2.2,0,4-1.8,4-4c0-2.2-1.8-4-4-4h-63.3C635.7,402,634.6,402.4,633.9,403.2z"/>
				<path class="st1" d="M704,301.5c0-7.2-5.9-13-13-13s-13,5.9-13,13s5.9,13,13,13S704,308.7,704,301.5z M685.9,301.5      c0-2.8,2.3-5,5-5s5,2.3,5,5c0,2.8-2.3,5-5,5S685.9,304.3,685.9,301.5z"/>
				<path class="st1" d="M891.6,57.4c7.2,0,13-5.9,13-13s-5.9-13-13-13s-13,5.9-13,13S884.4,57.4,891.6,57.4z M891.6,39.3      c2.8,0,5,2.3,5,5s-2.3,5-5,5s-5-2.3-5-5S888.8,39.3,891.6,39.3z"/>
				<circle class="st1" cx="665.1" cy="100.8" r="8.6"/>
				<circle class="st1" cx="741.3" cy="19.9" r="8.6"/>
				<circle class="st1" cx="735.4" cy="454" r="8.6"/>
				<circle class="st1" cx="641.9" cy="245" r="8.6"/>
				<path class="st1" d="M551.7,245c0-7.2-5.9-13-13-13s-13,5.9-13,13s5.9,13,13,13S551.7,252.2,551.7,245z M533.6,245      c0-2.8,2.3-5,5-5c2.8,0,5,2.3,5,5s-2.3,5-5,5C535.9,250,533.6,247.8,533.6,245z"/>
				<path class="st1" d="M913.7,245c0-7.2-5.9-13-13-13c-7.2,0-13,5.9-13,13s5.9,13,13,13C907.9,258,913.7,252.2,913.7,245z       M895.6,245c0-2.8,2.3-5,5-5c2.8,0,5,2.3,5,5s-2.3,5-5,5C897.9,250,895.6,247.8,895.6,245z"/>
				<path class="st1" d="M913.7,460c0-7.2-5.9-13-13-13c-7.2,0-13,5.9-13,13s5.9,13,13,13C907.9,473,913.7,467.2,913.7,460z       M900.7,465c-2.8,0-5-2.3-5-5s2.3-5,5-5c2.8,0,5,2.3,5,5S903.4,465,900.7,465z"/>
				<path class="st1" d="M509.4,36.3c7.2,0,13-5.9,13-13s-5.9-13-13-13s-13,5.9-13,13S502.2,36.3,509.4,36.3z M509.4,18.2      c2.8,0,5,2.3,5,5s-2.3,5-5,5c-2.8,0-5-2.3-5-5S506.6,18.2,509.4,18.2z"/>
				<path class="st1" d="M1127.8,181.8c0,33.6,27.4,61,61,61c33.6,0,61-27.4,61-61s-27.4-61-61-61      C1155.2,120.8,1127.8,148.1,1127.8,181.8z M1188.8,128.8c29.2,0,53,23.8,53,53s-23.8,53-53,53s-53-23.8-53-53      S1159.6,128.8,1188.8,128.8z"/>
				<path class="st1" d="M1227.8,192.6c-2.1-0.8-4.4,0.2-5.2,2.3c-1.2,3-2.8,5.9-4.7,8.5c-1.3,1.8-1,4.3,0.8,5.6      c0.7,0.5,1.6,0.8,2.4,0.8c1.2,0,2.4-0.6,3.2-1.6c2.4-3.2,4.3-6.7,5.7-10.4C1230.9,195.7,1229.9,193.4,1227.8,192.6z"/>
				<path class="st1" d="M1161,158.4c6.9-8.3,17.1-13,27.8-13c16.4,0,30.8,11,35.1,26.8c0.5,1.8,2.1,3,3.9,3c0.3,0,0.7,0,1-0.1      c2.1-0.6,3.4-2.8,2.8-4.9c-5.2-19.3-22.8-32.7-42.8-32.7c-13.1,0-25.5,5.8-34,15.8c-1.4,1.7-1.2,4.2,0.5,5.6      C1157,160.4,1159.6,160.1,1161,158.4z"/>
				<path class="st1" d="M1188.8,158.6c-12.8,0-23.1,10.4-23.1,23.1s10.4,23.1,23.1,23.1c12.8,0,23.1-10.4,23.1-23.1      S1201.6,158.6,1188.8,158.6z M1188.8,196.9c-8.3,0-15.1-6.8-15.1-15.1c0-8.3,6.8-15.1,15.1-15.1c8.3,0,15.1,6.8,15.1,15.1      C1203.9,190.1,1197.2,196.9,1188.8,196.9z"/>
				<path class="st1" d="M1194.1,289.8v117.6c0,8.6,7,15.5,15.5,15.5h63.4v23h-25.1c-2.2,0-4,1.8-4,4v20c0,2.2,1.8,4,4,4h89.2      c2.2,0,4-1.8,4-4v-20c0-2.2-1.8-4-4-4H1312v-23h63.4c8.6,0,15.5-7,15.5-15.5V289.8c0-8.6-7-15.5-15.5-15.5h-165.8      C1201.1,274.3,1194.1,281.3,1194.1,289.8z M1333.1,466h-81.2v-12h25.1h31h25.1V466z M1304,446h-23v-23h23V446z M1375.4,415H1308      h-31h-67.4c-4.2,0-7.5-3.4-7.5-7.5v-17.4h180.8v17.4C1382.9,411.6,1379.6,415,1375.4,415z M1382.9,289.8v92.2h-180.8v-92.2      c0-4.2,3.4-7.5,7.5-7.5h165.8C1379.6,282.3,1382.9,285.7,1382.9,289.8z"/>
				<path class="st1" d="M1112.6,355.7v-77.4c0-2.2-1.8-4-4-4H964.8c-2.2,0-4,1.8-4,4v77.4c0,2.2,1.8,4,4,4h143.8      C1110.8,359.7,1112.6,357.9,1112.6,355.7z M1104.6,351.7H968.8v-69.4h135.8V351.7z"/>
				<path class="st1" d="M989.6,315.1h11.9c3,0,5.4-2.4,5.4-5.4v-11.9c0-3-2.4-5.4-5.4-5.4h-11.9c-3,0-5.4,2.4-5.4,5.4v11.9      C984.2,312.7,986.6,315.1,989.6,315.1z"/>
				<path class="st1" d="M1017.1,315.1h11.9c3,0,5.4-2.4,5.4-5.4v-11.9c0-3-2.4-5.4-5.4-5.4h-11.9c-3,0-5.4,2.4-5.4,5.4v11.9      C1011.7,312.7,1014.1,315.1,1017.1,315.1z"/>
				<path class="st1" d="M1044.6,315.1h11.9c3,0,5.4-2.4,5.4-5.4v-11.9c0-3-2.4-5.4-5.4-5.4h-11.9c-3,0-5.4,2.4-5.4,5.4v11.9      C1039.1,312.7,1041.6,315.1,1044.6,315.1z"/>
				<path class="st1" d="M1072.1,315.1h11.9c3,0,5.4-2.4,5.4-5.4v-11.9c0-3-2.4-5.4-5.4-5.4h-11.9c-3,0-5.4,2.4-5.4,5.4v11.9      C1066.6,312.7,1069.1,315.1,1072.1,315.1z"/>
				<path class="st1" d="M989.6,341.6h11.9c3,0,5.4-2.4,5.4-5.4v-11.9c0-3-2.4-5.4-5.4-5.4h-11.9c-3,0-5.4,2.4-5.4,5.4v11.9      C984.2,339.2,986.6,341.6,989.6,341.6z"/>
				<path class="st1" d="M1072.1,341.6h11.9c3,0,5.4-2.4,5.4-5.4v-11.9c0-3-2.4-5.4-5.4-5.4h-11.9c-3,0-5.4,2.4-5.4,5.4v11.9      C1066.6,339.2,1069.1,341.6,1072.1,341.6z"/>
				<path class="st1" d="M1017.1,341.6h39.4c3,0,5.4-2.4,5.4-5.4v-11.9c0-3-2.4-5.4-5.4-5.4h-39.4c-3,0-5.4,2.4-5.4,5.4v11.9      C1011.7,339.2,1014.1,341.6,1017.1,341.6z"/>
				<path class="st1" d="M1017.9,462.2v-66.4c0-7.1-5.7-12.8-12.8-12.8h-33.2c-7.1,0-12.8,5.7-12.8,12.8v66.4      c0,7.1,5.7,12.8,12.8,12.8h33.2C1012.1,475,1017.9,469.2,1017.9,462.2z M967,462.2v-66.4c0-2.7,2.2-4.8,4.8-4.8h12.6v13.3      c-1.8,1.3-3,3.4-3,5.7c0,2.4,1.2,4.5,3,5.7v7.8c0,2.2,1.8,4,4,4c2.2,0,4-1.8,4-4v-7.8c1.8-1.3,3-3.4,3-5.7c0-2.4-1.2-4.5-3-5.7      V391h12.6c2.7,0,4.8,2.2,4.8,4.8v66.4c0,2.7-2.2,4.8-4.8,4.8h-33.2C969.2,467,967,464.8,967,462.2z"/>
				<path class="st1" d="M1272,105.9c23.7,0,43-19.3,43-43c0-23.7-19.3-43-43-43s-43,19.3-43,43C1229,86.6,1248.3,105.9,1272,105.9z       M1272,27.9c19.3,0,35,15.7,35,35s-15.7,35-35,35c-19.3,0-35-15.7-35-35S1252.7,27.9,1272,27.9z"/>
				<path class="st1" d="M1272,87c13.3,0,24.1-10.8,24.1-24.1c0-6.6-2.7-13-7.5-17.5c-1.6-1.5-4.1-1.5-5.7,0.2      c-1.5,1.6-1.5,4.1,0.2,5.7c3.2,3.1,5,7.2,5,11.7c0,8.9-7.2,16.1-16.1,16.1c-8.9,0-16.1-7.2-16.1-16.1c0-4.5,1.8-8.6,5-11.7      c1.6-1.5,1.7-4.1,0.2-5.7c-1.5-1.6-4.1-1.7-5.7-0.2c-4.9,4.6-7.5,10.8-7.5,17.5C1247.9,76.2,1258.7,87,1272,87z"/>
				<path class="st1" d="M1272,60c2.2,0,4-1.8,4-4V37.7c0-2.2-1.8-4-4-4c-2.2,0-4,1.8-4,4V56C1268,58.2,1269.8,60,1272,60z"/>
				<path class="st1" d="M1088,199.4v-65.3c0-12.2-9.9-22-22-22h-43.3V65.5c0-2.2-1.8-4-4-4h-80c-2.2,0-4,1.8-4,4v46.7h-1.3v8h1.3      v25.3c0,2.2,1.8,4,4,4h80c2.2,0,4-1.8,4-4v-25.3h43.3c7.7,0,14.1,6.3,14.1,14v65.3c0,7.7-6.3,14.1-14.1,14.1H933.4v8H1066      C1078.1,221.5,1088,211.6,1088,199.4z M1014.7,141.5h-72v-25.3V69.5h72v46.7V141.5z"/>
				<path class="st1" d="M1356.7,120.1h43.3v-8h-43.3c-12.2,0-22,9.9-22,22v65.3c0,12.2,9.9,22,22,22h43.3v-8h-43.3      c-7.7,0-14-6.3-14-14.1v-65.3C1342.7,126.4,1349,120.1,1356.7,120.1z"/>
				<path class="st1" d="M1001.4,78.1H956c-2.2,0-4,1.8-4,4s1.8,4,4,4h45.3c2.2,0,4-1.8,4-4S1003.6,78.1,1001.4,78.1z"/>
				<path class="st1" d="M1001.4,96.8H956c-2.2,0-4,1.8-4,4c0,2.2,1.8,4,4,4h45.3c2.2,0,4-1.8,4-4      C1005.4,98.6,1003.6,96.8,1001.4,96.8z"/>
				<path class="st1" d="M1001.4,115.5H956c-2.2,0-4,1.8-4,4c0,2.2,1.8,4,4,4h45.3c2.2,0,4-1.8,4-4      C1005.4,117.3,1003.6,115.5,1001.4,115.5z"/>
				<circle class="st1" cx="1063.3" cy="136.2" r="4.7"/>
				<circle class="st1" cx="1063.3" cy="154.7" r="4.7"/>
				<path class="st1" d="M1039.1,27.2h44.9v34.2c0,2.2,1.8,4,4,4h61.3v4.6c0,2.2,1.8,4,4,4h17.2c2.2,0,4-1.8,4-4V52.9      c0-2.2-1.8-4-4-4h-17.2c-2.2,0-4,1.8-4,4v4.6H1092V23.2c0-2.2-1.8-4-4-4h-48.9c-2.2,0-4,1.8-4,4      C1035.1,25.5,1036.9,27.2,1039.1,27.2z M1157.3,56.9h9.2v9.2h-9.2V56.9z"/>
				<path class="st1" d="M1140,452.6h17.2c2.2,0,4-1.8,4-4v-17.2c0-2.2-1.8-4-4-4H1140c-2.2,0-4,1.8-4,4v4.6h-85.5c-2.2,0-4,1.8-4,4      c0,2.2,1.8,4,4,4h85.5v4.6C1136,450.8,1137.8,452.6,1140,452.6z M1144,435.4h9.2v9.2h-9.2V435.4z"/>
				<path class="st1" d="M1312,132.2c-2.2,0-4,1.8-4,4v21.6l-12.7,12.7c-0.8,0.7-1.2,1.8-1.2,2.8V245c0,2.2,1.8,4,4,4s4-1.8,4-4v-70      l12.7-12.7c0.7-0.7,1.2-1.8,1.2-2.8v-23.2C1316,134,1314.2,132.2,1312,132.2z"/>
				<path class="st1" d="M1280,231.6V122.5c0-2.2-1.8-4-4-4c-2.2,0-4,1.8-4,4v109.1c0,2.2,1.8,4,4,4      C1278.2,235.6,1280,233.8,1280,231.6z"/>
				<path class="st1" d="M1100.6,403.2l-12.9,12.9h-37.2c-2.2,0-4,1.8-4,4c0,2.2,1.8,4,4,4h38.8c1.1,0,2.1-0.4,2.8-1.2l12.9-12.9      h61.6c2.2,0,4-1.8,4-4c0-2.2-1.8-4-4-4h-63.3C1102.3,402,1101.3,402.4,1100.6,403.2z"/>
				<path class="st1" d="M1170.7,301.5c0-7.2-5.9-13-13-13c-7.2,0-13,5.9-13,13s5.9,13,13,13      C1164.8,314.5,1170.7,308.7,1170.7,301.5z M1152.6,301.5c0-2.8,2.3-5,5-5c2.8,0,5,2.3,5,5c0,2.8-2.3,5-5,5      C1154.8,306.5,1152.6,304.3,1152.6,301.5z"/>
				<path class="st1" d="M1358.3,57.4c7.2,0,13-5.9,13-13s-5.9-13-13-13c-7.2,0-13,5.9-13,13S1351.1,57.4,1358.3,57.4z M1358.3,39.3      c2.8,0,5,2.3,5,5s-2.3,5-5,5c-2.8,0-5-2.3-5-5S1355.5,39.3,1358.3,39.3z"/>
				<circle class="st1" cx="1131.8" cy="100.8" r="8.6"/>
				<circle class="st1" cx="1207.9" cy="19.9" r="8.6"/>
				<circle class="st1" cx="1202.1" cy="454" r="8.6"/>
				<circle class="st1" cx="1108.6" cy="245" r="8.6"/>
				<path class="st1" d="M1018.4,245c0-7.2-5.9-13-13-13s-13,5.9-13,13s5.9,13,13,13S1018.4,252.2,1018.4,245z M1000.3,245      c0-2.8,2.3-5,5-5s5,2.3,5,5s-2.3,5-5,5S1000.3,247.8,1000.3,245z"/>
				<path class="st1" d="M1380.4,245c0-7.2-5.9-13-13-13c-7.2,0-13,5.9-13,13s5.9,13,13,13C1374.5,258,1380.4,252.2,1380.4,245z       M1362.3,245c0-2.8,2.3-5,5-5s5,2.3,5,5s-2.3,5-5,5S1362.3,247.8,1362.3,245z"/>
				<path class="st1" d="M1380.4,460c0-7.2-5.9-13-13-13c-7.2,0-13,5.9-13,13s5.9,13,13,13C1374.5,473,1380.4,467.2,1380.4,460z       M1367.3,465c-2.8,0-5-2.3-5-5s2.3-5,5-5s5,2.3,5,5S1370.1,465,1367.3,465z"/>
				<path class="st1" d="M976.1,36.3c7.2,0,13-5.9,13-13s-5.9-13-13-13c-7.2,0-13,5.9-13,13S968.9,36.3,976.1,36.3z M976.1,18.2      c2.8,0,5,2.3,5,5s-2.3,5-5,5c-2.8,0-5-2.3-5-5S973.3,18.2,976.1,18.2z"/>
				<path class="st1" d="M316.5,671.7c0-33.6-27.4-61-61-61s-61,27.4-61,61s27.4,61,61,61S316.5,705.4,316.5,671.7z M255.5,724.7      c-29.2,0-53-23.8-53-53s23.8-53,53-53s53,23.8,53,53S284.7,724.7,255.5,724.7z"/>
				<path class="st1" d="M294.5,682.6c-2.1-0.8-4.4,0.2-5.2,2.3c-1.2,3-2.8,5.9-4.7,8.5c-1.3,1.8-1,4.3,0.8,5.6      c0.7,0.5,1.6,0.8,2.4,0.8c1.2,0,2.4-0.6,3.2-1.6c2.4-3.2,4.3-6.7,5.7-10.4C297.6,685.7,296.5,683.4,294.5,682.6z"/>
				<path class="st1" d="M298.2,660.2c-5.2-19.3-22.8-32.7-42.8-32.7c-13.1,0-25.5,5.8-34,15.8c-1.4,1.7-1.2,4.2,0.5,5.6      c1.7,1.4,4.2,1.2,5.6-0.5c6.9-8.3,17.1-13,27.8-13c16.4,0,30.8,11,35.1,26.8c0.5,1.8,2.1,3,3.9,3c0.3,0,0.7,0,1-0.1      C297.5,664.5,298.8,662.3,298.2,660.2z"/>
				<path class="st1" d="M255.5,648.6c-12.8,0-23.1,10.4-23.1,23.1s10.4,23.1,23.1,23.1c12.8,0,23.1-10.4,23.1-23.1      S268.2,648.6,255.5,648.6z M255.5,686.9c-8.3,0-15.1-6.8-15.1-15.1s6.8-15.1,15.1-15.1c8.3,0,15.1,6.8,15.1,15.1      S263.8,686.9,255.5,686.9z"/>
				<path class="st1" d="M442.1,764.3H276.3c-8.6,0-15.5,7-15.5,15.5v117.6c0,8.6,7,15.5,15.5,15.5h63.4v23h-25.1c-2.2,0-4,1.8-4,4      v20c0,2.2,1.8,4,4,4h89.2c2.2,0,4-1.8,4-4v-20c0-2.2-1.8-4-4-4h-25.1v-23h63.4c8.6,0,15.5-7,15.5-15.5V779.8      C457.6,771.2,450.6,764.3,442.1,764.3z M276.3,772.3h165.8c4.2,0,7.5,3.4,7.5,7.5V872H268.8v-92.2      C268.8,775.7,272.1,772.3,276.3,772.3z M399.8,955.9h-81.2v-12h25.1h31h25.1V955.9z M370.7,936h-23v-23h23V936z M442.1,905      h-67.4h-31h-67.4c-4.2,0-7.5-3.4-7.5-7.5V880h180.8v17.4C449.6,901.6,446.2,905,442.1,905z"/>
				<path class="st1" d="M27.5,768.3v77.4c0,2.2,1.8,4,4,4h143.8c2.2,0,4-1.8,4-4v-77.4c0-2.2-1.8-4-4-4H31.5      C29.3,764.3,27.5,766.1,27.5,768.3z M35.5,772.3h135.8v69.4H35.5V772.3z"/>
				<path class="st1" d="M68.1,782.4H56.2c-3,0-5.4,2.4-5.4,5.4v11.9c0,3,2.4,5.4,5.4,5.4h11.9c3,0,5.4-2.4,5.4-5.4v-11.9      C73.5,784.8,71,782.4,68.1,782.4z"/>
				<path class="st1" d="M83.7,805.1h11.9c3,0,5.4-2.4,5.4-5.4v-11.9c0-3-2.4-5.4-5.4-5.4H83.7c-3,0-5.4,2.4-5.4,5.4v11.9      C78.3,802.7,80.7,805.1,83.7,805.1z"/>
				<path class="st1" d="M123.1,782.4h-11.9c-3,0-5.4,2.4-5.4,5.4v11.9c0,3,2.4,5.4,5.4,5.4h11.9c3,0,5.4-2.4,5.4-5.4v-11.9      C128.5,784.8,126,782.4,123.1,782.4z"/>
				<path class="st1" d="M150.6,782.4h-11.9c-3,0-5.4,2.4-5.4,5.4v11.9c0,3,2.4,5.4,5.4,5.4h11.9c3,0,5.4-2.4,5.4-5.4v-11.9      C156,784.8,153.5,782.4,150.6,782.4z"/>
				<path class="st1" d="M68.1,808.9H56.2c-3,0-5.4,2.4-5.4,5.4v11.9c0,3,2.4,5.4,5.4,5.4h11.9c3,0,5.4-2.4,5.4-5.4v-11.9      C73.5,811.3,71,808.9,68.1,808.9z"/>
				<path class="st1" d="M150.6,808.9h-11.9c-3,0-5.4,2.4-5.4,5.4v11.9c0,3,2.4,5.4,5.4,5.4h11.9c3,0,5.4-2.4,5.4-5.4v-11.9      C156,811.3,153.5,808.9,150.6,808.9z"/>
				<path class="st1" d="M123.1,808.9H83.7c-3,0-5.4,2.4-5.4,5.4v11.9c0,3,2.4,5.4,5.4,5.4h39.4c3,0,5.4-2.4,5.4-5.4v-11.9      C128.5,811.3,126,808.9,123.1,808.9z"/>
				<path class="st1" d="M71.7,873H38.5c-7.1,0-12.8,5.7-12.8,12.8v66.4c0,7.1,5.7,12.8,12.8,12.8h33.2c7.1,0,12.8-5.7,12.8-12.8      v-66.4C84.5,878.7,78.8,873,71.7,873z M76.5,952.2c0,2.7-2.2,4.8-4.8,4.8H38.5c-2.7,0-4.8-2.2-4.8-4.8v-66.4      c0-2.7,2.2-4.8,4.8-4.8h12.6v13.3c-1.8,1.3-3,3.4-3,5.7c0,2.4,1.2,4.5,3,5.7v7.8c0,2.2,1.8,4,4,4c2.2,0,4-1.8,4-4v-7.8      c1.8-1.3,3-3.4,3-5.7s-1.2-4.5-3-5.7V881h12.6c2.7,0,4.8,2.2,4.8,4.8V952.2z"/>
				<path class="st1" d="M381.7,552.9c0-23.7-19.3-43-43-43s-43,19.3-43,43c0,23.7,19.3,43,43,43S381.7,576.6,381.7,552.9z       M338.7,587.9c-19.3,0-35-15.7-35-35c0-19.3,15.7-35,35-35s35,15.7,35,35C373.7,572.2,358,587.9,338.7,587.9z"/>
				<path class="st1" d="M355.2,535.4c-1.6-1.5-4.1-1.5-5.7,0.2c-1.5,1.6-1.5,4.1,0.2,5.7c3.2,3.1,5,7.2,5,11.7      c0,8.9-7.2,16.1-16.1,16.1c-8.9,0-16.1-7.2-16.1-16.1c0-4.5,1.8-8.6,5-11.7c1.6-1.5,1.7-4.1,0.2-5.7c-1.5-1.6-4.1-1.7-5.7-0.2      c-4.9,4.6-7.5,10.8-7.5,17.5c0,13.3,10.8,24.1,24.1,24.1c13.3,0,24.1-10.8,24.1-24.1C362.7,546.3,360,539.9,355.2,535.4z"/>
				<path class="st1" d="M338.7,550c2.2,0,4-1.8,4-4v-18.3c0-2.2-1.8-4-4-4c-2.2,0-4,1.8-4,4V546C334.7,548.2,336.4,550,338.7,550z"/>
				<path class="st1" d="M154.7,689.4v-65.3c0-12.2-9.9-22-22-22H89.3v-46.7c0-2.2-1.8-4-4-4h-80c-2.2,0-4,1.8-4,4v46.7H0v8h1.3      v25.3c0,2.2,1.8,4,4,4h80c2.2,0,4-1.8,4-4v-25.3h43.3c7.7,0,14.1,6.3,14.1,14v65.3c0,7.7-6.3,14.1-14.1,14.1H0v8h132.6      C144.8,711.5,154.7,701.6,154.7,689.4z M81.3,631.4h-72v-25.3v-46.7h72v46.7V631.4z"/>
				<path class="st1" d="M401.3,624.2v65.3c0,12.2,9.9,22,22,22h43.3v-8h-43.3c-7.7,0-14-6.3-14-14.1v-65.3c0-7.7,6.3-14,14-14h43.3      v-8h-43.3C411.2,602.1,401.3,612,401.3,624.2z"/>
				<path class="st1" d="M68,568.1H22.7c-2.2,0-4,1.8-4,4c0,2.2,1.8,4,4,4H68c2.2,0,4-1.8,4-4C72,569.9,70.2,568.1,68,568.1z"/>
				<path class="st1" d="M68,586.8H22.7c-2.2,0-4,1.8-4,4c0,2.2,1.8,4,4,4H68c2.2,0,4-1.8,4-4C72,588.6,70.2,586.8,68,586.8z"/>
				<path class="st1" d="M68,605.4H22.7c-2.2,0-4,1.8-4,4c0,2.2,1.8,4,4,4H68c2.2,0,4-1.8,4-4C72,607.2,70.2,605.4,68,605.4z"/>
				<circle class="st1" cx="129.9" cy="626.2" r="4.7"/>
				<circle class="st1" cx="129.9" cy="644.7" r="4.7"/>
				<path class="st1" d="M220,564.1h17.2c2.2,0,4-1.8,4-4v-17.2c0-2.2-1.8-4-4-4H220c-2.2,0-4,1.8-4,4v4.6h-57.3v-34.2      c0-2.2-1.8-4-4-4h-48.9c-2.2,0-4,1.8-4,4c0,2.2,1.8,4,4,4h44.9v34.2c0,2.2,1.8,4,4,4H216v4.6C216,562.3,217.7,564.1,220,564.1z       M224,546.8h9.2v9.2H224V546.8z"/>
				<path class="st1" d="M223.8,917.4h-17.2c-2.2,0-4,1.8-4,4v4.6h-85.5c-2.2,0-4,1.8-4,4c0,2.2,1.8,4,4,4h85.5v4.6c0,2.2,1.8,4,4,4      h17.2c2.2,0,4-1.8,4-4v-17.2C227.8,919.1,226,917.4,223.8,917.4z M219.8,934.6h-9.2v-9.2h9.2V934.6z"/>
				<path class="st1" d="M364.8,739c2.2,0,4-1.8,4-4v-70l12.7-12.7c0.7-0.7,1.2-1.8,1.2-2.8v-23.2c0-2.2-1.8-4-4-4c-2.2,0-4,1.8-4,4      v21.6L362,660.5c-0.7,0.7-1.2,1.8-1.2,2.8V735C360.8,737.2,362.6,739,364.8,739z"/>
				<path class="st1" d="M338.7,612.5v109.1c0,2.2,1.8,4,4,4c2.2,0,4-1.8,4-4V612.5c0-2.2-1.8-4-4-4      C340.4,608.5,338.7,610.3,338.7,612.5z"/>
				<path class="st1" d="M233.3,892H170c-1.1,0-2.1,0.4-2.8,1.2L154.3,906h-37.2c-2.2,0-4,1.8-4,4c0,2.2,1.8,4,4,4H156      c1.1,0,2.1-0.4,2.8-1.2l12.9-12.9h61.6c2.2,0,4-1.8,4-4C237.3,893.8,235.5,892,233.3,892z"/>
				<path class="st1" d="M224.3,778.4c-7.2,0-13,5.9-13,13s5.9,13,13,13s13-5.9,13-13S231.5,778.4,224.3,778.4z M224.3,796.5      c-2.8,0-5-2.3-5-5c0-2.8,2.3-5,5-5s5,2.3,5,5C229.3,794.2,227.1,796.5,224.3,796.5z"/>
				<path class="st1" d="M411.9,534.3c0,7.2,5.9,13,13,13s13-5.9,13-13s-5.9-13-13-13S411.9,527.1,411.9,534.3z M430,534.3      c0,2.8-2.3,5-5,5s-5-2.3-5-5s2.3-5,5-5S430,531.5,430,534.3z"/>
				<circle class="st1" cx="198.5" cy="590.8" r="8.6"/>
				<circle class="st1" cx="274.6" cy="509.9" r="8.6"/>
				<circle class="st1" cx="268.8" cy="944" r="8.6"/>
				<circle class="st1" cx="175.2" cy="735" r="8.6"/>
				<path class="st1" d="M85,735c0-7.2-5.9-13-13-13c-7.2,0-13,5.9-13,13s5.9,13,13,13C79.2,748,85,742.2,85,735z M67,735      c0-2.8,2.3-5,5-5c2.8,0,5,2.3,5,5s-2.3,5-5,5C69.2,740,67,737.8,67,735z"/>
				<path class="st1" d="M447,735c0-7.2-5.9-13-13-13c-7.2,0-13,5.9-13,13s5.9,13,13,13C441.2,748,447,742.2,447,735z M428.9,735      c0-2.8,2.3-5,5-5c2.8,0,5,2.3,5,5s-2.3,5-5,5C431.2,740,428.9,737.8,428.9,735z"/>
				<path class="st1" d="M434,936.9c-7.2,0-13,5.9-13,13s5.9,13,13,13c7.2,0,13-5.9,13-13S441.2,936.9,434,936.9z M434,955      c-2.8,0-5-2.3-5-5c0-2.8,2.3-5,5-5c2.8,0,5,2.3,5,5C439,952.7,436.8,955,434,955z"/>
				<path class="st1" d="M29.7,513.2c0,7.2,5.9,13,13,13s13-5.9,13-13s-5.9-13-13-13S29.7,506,29.7,513.2z M47.8,513.2      c0,2.8-2.3,5-5,5s-5-2.3-5-5s2.3-5,5-5S47.8,510.4,47.8,513.2z"/>
				<path class="st1" d="M783.1,671.7c0-33.6-27.4-61-61-61s-61,27.4-61,61s27.4,61,61,61S783.1,705.4,783.1,671.7z M722.1,724.7      c-29.2,0-53-23.8-53-53s23.8-53,53-53s53,23.8,53,53S751.4,724.7,722.1,724.7z"/>
				<path class="st1" d="M761.2,682.6c-2.1-0.8-4.4,0.2-5.2,2.3c-1.2,3-2.8,5.9-4.7,8.5c-1.3,1.8-1,4.3,0.8,5.6      c0.7,0.5,1.6,0.8,2.4,0.8c1.2,0,2.4-0.6,3.2-1.6c2.4-3.2,4.3-6.7,5.7-10.4C764.2,685.7,763.2,683.4,761.2,682.6z"/>
				<path class="st1" d="M764.9,660.2c-5.2-19.3-22.8-32.7-42.8-32.7c-13.1,0-25.5,5.8-34,15.8c-1.4,1.7-1.2,4.2,0.5,5.6      c1.7,1.4,4.2,1.2,5.6-0.5c6.9-8.3,17.1-13,27.8-13c16.4,0,30.8,11,35.1,26.8c0.5,1.8,2.1,3,3.9,3c0.3,0,0.7,0,1-0.1      C764.2,664.5,765.5,662.3,764.9,660.2z"/>
				<path class="st1" d="M722.1,648.6c-12.8,0-23.1,10.4-23.1,23.1s10.4,23.1,23.1,23.1s23.1-10.4,23.1-23.1      S734.9,648.6,722.1,648.6z M722.1,686.9c-8.3,0-15.1-6.8-15.1-15.1s6.8-15.1,15.1-15.1c8.3,0,15.1,6.8,15.1,15.1      S730.5,686.9,722.1,686.9z"/>
				<path class="st1" d="M908.7,764.3H743c-8.6,0-15.5,7-15.5,15.5v117.6c0,8.6,7,15.5,15.5,15.5h63.4v23h-25.1c-2.2,0-4,1.8-4,4v20      c0,2.2,1.8,4,4,4h89.2c2.2,0,4-1.8,4-4v-20c0-2.2-1.8-4-4-4h-25.1v-23h63.4c8.6,0,15.5-7,15.5-15.5V779.8      C924.3,771.2,917.3,764.3,908.7,764.3z M743,772.3h165.8c4.2,0,7.5,3.4,7.5,7.5V872H735.4v-92.2      C735.4,775.7,738.8,772.3,743,772.3z M866.4,955.9h-81.2v-12h25.1h31h25.1V955.9z M837.4,936h-23v-23h23V936z M908.7,905h-67.4      h-31H743c-4.2,0-7.5-3.4-7.5-7.5V880h180.8v17.4C916.3,901.6,912.9,905,908.7,905z"/>
				<path class="st1" d="M494.2,768.3v77.4c0,2.2,1.8,4,4,4H642c2.2,0,4-1.8,4-4v-77.4c0-2.2-1.8-4-4-4H498.2      C495.9,764.3,494.2,766.1,494.2,768.3z M502.2,772.3H638v69.4H502.2V772.3z"/>
				<path class="st1" d="M534.7,782.4h-11.9c-3,0-5.4,2.4-5.4,5.4v11.9c0,3,2.4,5.4,5.4,5.4h11.9c3,0,5.4-2.4,5.4-5.4v-11.9      C540.1,784.8,537.7,782.4,534.7,782.4z"/>
				<path class="st1" d="M550.4,805.1h11.9c3,0,5.4-2.4,5.4-5.4v-11.9c0-3-2.4-5.4-5.4-5.4h-11.9c-3,0-5.4,2.4-5.4,5.4v11.9      C545,802.7,547.4,805.1,550.4,805.1z"/>
				<path class="st1" d="M589.7,782.4h-11.9c-3,0-5.4,2.4-5.4,5.4v11.9c0,3,2.4,5.4,5.4,5.4h11.9c3,0,5.4-2.4,5.4-5.4v-11.9      C595.1,784.8,592.7,782.4,589.7,782.4z"/>
				<path class="st1" d="M617.2,782.4h-11.9c-3,0-5.4,2.4-5.4,5.4v11.9c0,3,2.4,5.4,5.4,5.4h11.9c3,0,5.4-2.4,5.4-5.4v-11.9      C622.6,784.8,620.2,782.4,617.2,782.4z"/>
				<path class="st1" d="M534.7,808.9h-11.9c-3,0-5.4,2.4-5.4,5.4v11.9c0,3,2.4,5.4,5.4,5.4h11.9c3,0,5.4-2.4,5.4-5.4v-11.9      C540.1,811.3,537.7,808.9,534.7,808.9z"/>
				<path class="st1" d="M617.2,808.9h-11.9c-3,0-5.4,2.4-5.4,5.4v11.9c0,3,2.4,5.4,5.4,5.4h11.9c3,0,5.4-2.4,5.4-5.4v-11.9      C622.6,811.3,620.2,808.9,617.2,808.9z"/>
				<path class="st1" d="M589.7,808.9h-39.4c-3,0-5.4,2.4-5.4,5.4v11.9c0,3,2.4,5.4,5.4,5.4h39.4c3,0,5.4-2.4,5.4-5.4v-11.9      C595.1,811.3,592.7,808.9,589.7,808.9z"/>
				<path class="st1" d="M538.4,873h-33.2c-7.1,0-12.8,5.7-12.8,12.8v66.4c0,7.1,5.7,12.8,12.8,12.8h33.2c7.1,0,12.8-5.7,12.8-12.8      v-66.4C551.2,878.7,545.5,873,538.4,873z M543.2,952.2c0,2.7-2.2,4.8-4.8,4.8h-33.2c-2.7,0-4.8-2.2-4.8-4.8v-66.4      c0-2.7,2.2-4.8,4.8-4.8h12.6v13.3c-1.8,1.3-3,3.4-3,5.7c0,2.4,1.2,4.5,3,5.7v7.8c0,2.2,1.8,4,4,4c2.2,0,4-1.8,4-4v-7.8      c1.8-1.3,3-3.4,3-5.7s-1.2-4.5-3-5.7V881h12.6c2.7,0,4.8,2.2,4.8,4.8V952.2z"/>
				<path class="st1" d="M848.3,552.9c0-23.7-19.3-43-43-43s-43,19.3-43,43c0,23.7,19.3,43,43,43S848.3,576.6,848.3,552.9z       M805.3,587.9c-19.3,0-35-15.7-35-35c0-19.3,15.7-35,35-35s35,15.7,35,35C840.3,572.2,824.6,587.9,805.3,587.9z"/>
				<path class="st1" d="M821.9,535.4c-1.6-1.5-4.1-1.5-5.7,0.2c-1.5,1.6-1.5,4.1,0.2,5.7c3.2,3.1,5,7.2,5,11.7      c0,8.9-7.2,16.1-16.1,16.1c-8.9,0-16.1-7.2-16.1-16.1c0-4.5,1.8-8.6,5-11.7c1.6-1.5,1.7-4.1,0.2-5.7c-1.5-1.6-4.1-1.7-5.7-0.2      c-4.9,4.6-7.5,10.8-7.5,17.5c0,13.3,10.8,24.1,24.1,24.1c13.3,0,24.1-10.8,24.1-24.1C829.4,546.3,826.7,539.9,821.9,535.4z"/>
				<path class="st1" d="M805.3,550c2.2,0,4-1.8,4-4v-18.3c0-2.2-1.8-4-4-4c-2.2,0-4,1.8-4,4V546C801.3,548.2,803.1,550,805.3,550z"/>
				<path class="st1" d="M621.3,689.4v-65.3c0-12.2-9.9-22-22-22H556v-46.7c0-2.2-1.8-4-4-4h-80c-2.2,0-4,1.8-4,4v46.7h-1.3v8h1.3      v25.3c0,2.2,1.8,4,4,4h80c2.2,0,4-1.8,4-4v-25.3h43.3c7.7,0,14.1,6.3,14.1,14v65.3c0,7.7-6.3,14.1-14.1,14.1H466.7v8h132.6      C611.4,711.5,621.3,701.6,621.3,689.4z M548,631.4h-72v-25.3v-46.7h72v46.7V631.4z"/>
				<path class="st1" d="M868,624.2v65.3c0,12.2,9.9,22,22,22h43.3v-8H890c-7.7,0-14-6.3-14-14.1v-65.3c0-7.7,6.3-14,14-14h43.3v-8      H890C877.9,602.1,868,612,868,624.2z"/>
				<path class="st1" d="M534.7,568.1h-45.3c-2.2,0-4,1.8-4,4c0,2.2,1.8,4,4,4h45.3c2.2,0,4-1.8,4-4      C538.7,569.9,536.9,568.1,534.7,568.1z"/>
				<path class="st1" d="M534.7,586.8h-45.3c-2.2,0-4,1.8-4,4c0,2.2,1.8,4,4,4h45.3c2.2,0,4-1.8,4-4      C538.7,588.6,536.9,586.8,534.7,586.8z"/>
				<path class="st1" d="M534.7,605.4h-45.3c-2.2,0-4,1.8-4,4c0,2.2,1.8,4,4,4h45.3c2.2,0,4-1.8,4-4      C538.7,607.2,536.9,605.4,534.7,605.4z"/>
				<circle class="st1" cx="596.6" cy="626.2" r="4.7"/>
				<circle class="st1" cx="596.6" cy="644.7" r="4.7"/>
				<path class="st1" d="M686.6,564.1h17.2c2.2,0,4-1.8,4-4v-17.2c0-2.2-1.8-4-4-4h-17.2c-2.2,0-4,1.8-4,4v4.6h-57.3v-34.2      c0-2.2-1.8-4-4-4h-48.9c-2.2,0-4,1.8-4,4c0,2.2,1.8,4,4,4h44.9v34.2c0,2.2,1.8,4,4,4h61.3v4.6      C682.6,562.3,684.4,564.1,686.6,564.1z M690.6,546.8h9.2v9.2h-9.2V546.8z"/>
				<path class="st1" d="M690.5,917.4h-17.2c-2.2,0-4,1.8-4,4v4.6h-85.5c-2.2,0-4,1.8-4,4c0,2.2,1.8,4,4,4h85.5v4.6c0,2.2,1.8,4,4,4      h17.2c2.2,0,4-1.8,4-4v-17.2C694.5,919.1,692.7,917.4,690.5,917.4z M686.5,934.6h-9.2v-9.2h9.2V934.6z"/>
				<path class="st1" d="M831.5,739c2.2,0,4-1.8,4-4v-70l12.7-12.7c0.7-0.7,1.2-1.8,1.2-2.8v-23.2c0-2.2-1.8-4-4-4c-2.2,0-4,1.8-4,4      v21.6l-12.7,12.7c-0.7,0.7-1.2,1.8-1.2,2.8V735C827.5,737.2,829.3,739,831.5,739z"/>
				<path class="st1" d="M805.3,612.5v109.1c0,2.2,1.8,4,4,4c2.2,0,4-1.8,4-4V612.5c0-2.2-1.8-4-4-4      C807.1,608.5,805.3,610.3,805.3,612.5z"/>
				<path class="st1" d="M700,892h-63.3c-1.1,0-2.1,0.4-2.8,1.2L621,906h-37.2c-2.2,0-4,1.8-4,4c0,2.2,1.8,4,4,4h38.8      c1.1,0,2.1-0.4,2.8-1.2l12.9-12.9H700c2.2,0,4-1.8,4-4C704,893.8,702.2,892,700,892z"/>
				<path class="st1" d="M691,778.4c-7.2,0-13,5.9-13,13s5.9,13,13,13s13-5.9,13-13S698.1,778.4,691,778.4z M691,796.5      c-2.8,0-5-2.3-5-5c0-2.8,2.3-5,5-5s5,2.3,5,5C696,794.2,693.7,796.5,691,796.5z"/>
				<path class="st1" d="M878.6,534.3c0,7.2,5.9,13,13,13s13-5.9,13-13s-5.9-13-13-13S878.6,527.1,878.6,534.3z M896.7,534.3      c0,2.8-2.3,5-5,5s-5-2.3-5-5s2.3-5,5-5S896.7,531.5,896.7,534.3z"/>
				<circle class="st1" cx="665.1" cy="590.8" r="8.6"/>
				<circle class="st1" cx="741.3" cy="509.9" r="8.6"/>
				<circle class="st1" cx="735.4" cy="944" r="8.6"/>
				<circle class="st1" cx="641.9" cy="735" r="8.6"/>
				<path class="st1" d="M551.7,735c0-7.2-5.9-13-13-13s-13,5.9-13,13s5.9,13,13,13S551.7,742.2,551.7,735z M533.6,735      c0-2.8,2.3-5,5-5c2.8,0,5,2.3,5,5s-2.3,5-5,5C535.9,740,533.6,737.8,533.6,735z"/>
				<path class="st1" d="M913.7,735c0-7.2-5.9-13-13-13c-7.2,0-13,5.9-13,13s5.9,13,13,13C907.9,748,913.7,742.2,913.7,735z       M895.6,735c0-2.8,2.3-5,5-5c2.8,0,5,2.3,5,5s-2.3,5-5,5C897.9,740,895.6,737.8,895.6,735z"/>
				<path class="st1" d="M900.7,936.9c-7.2,0-13,5.9-13,13s5.9,13,13,13c7.2,0,13-5.9,13-13S907.9,936.9,900.7,936.9z M900.7,955      c-2.8,0-5-2.3-5-5c0-2.8,2.3-5,5-5c2.8,0,5,2.3,5,5C905.7,952.7,903.4,955,900.7,955z"/>
				<path class="st1" d="M496.3,513.2c0,7.2,5.9,13,13,13s13-5.9,13-13s-5.9-13-13-13S496.3,506,496.3,513.2z M514.4,513.2      c0,2.8-2.3,5-5,5c-2.8,0-5-2.3-5-5s2.3-5,5-5C512.2,508.2,514.4,510.4,514.4,513.2z"/>
				<path class="st1" d="M1249.8,671.7c0-33.6-27.4-61-61-61c-33.6,0-61,27.4-61,61s27.4,61,61,61      C1222.4,732.7,1249.8,705.4,1249.8,671.7z M1188.8,724.7c-29.2,0-53-23.8-53-53s23.8-53,53-53s53,23.8,53,53      S1218,724.7,1188.8,724.7z"/>
				<path class="st1" d="M1227.8,682.6c-2.1-0.8-4.4,0.2-5.2,2.3c-1.2,3-2.8,5.9-4.7,8.5c-1.3,1.8-1,4.3,0.8,5.6      c0.7,0.5,1.6,0.8,2.4,0.8c1.2,0,2.4-0.6,3.2-1.6c2.4-3.2,4.3-6.7,5.7-10.4C1230.9,685.7,1229.9,683.4,1227.8,682.6z"/>
				<path class="st1" d="M1231.6,660.2c-5.2-19.3-22.8-32.7-42.8-32.7c-13.1,0-25.5,5.8-34,15.8c-1.4,1.7-1.2,4.2,0.5,5.6      c1.7,1.4,4.2,1.2,5.6-0.5c6.9-8.3,17.1-13,27.8-13c16.4,0,30.8,11,35.1,26.8c0.5,1.8,2.1,3,3.9,3c0.3,0,0.7,0,1-0.1      C1230.9,664.5,1232.2,662.3,1231.6,660.2z"/>
				<path class="st1" d="M1188.8,648.6c-12.8,0-23.1,10.4-23.1,23.1s10.4,23.1,23.1,23.1c12.8,0,23.1-10.4,23.1-23.1      S1201.6,648.6,1188.8,648.6z M1188.8,686.9c-8.3,0-15.1-6.8-15.1-15.1s6.8-15.1,15.1-15.1c8.3,0,15.1,6.8,15.1,15.1      S1197.2,686.9,1188.8,686.9z"/>
				<path class="st1" d="M1375.4,764.3h-165.8c-8.6,0-15.5,7-15.5,15.5v117.6c0,8.6,7,15.5,15.5,15.5h63.4v23h-25.1      c-2.2,0-4,1.8-4,4v20c0,2.2,1.8,4,4,4h89.2c2.2,0,4-1.8,4-4v-20c0-2.2-1.8-4-4-4H1312v-23h63.4c8.6,0,15.5-7,15.5-15.5V779.8      C1390.9,771.2,1384,764.3,1375.4,764.3z M1209.6,772.3h165.8c4.2,0,7.5,3.4,7.5,7.5V872h-180.8v-92.2      C1202.1,775.7,1205.5,772.3,1209.6,772.3z M1333.1,955.9h-81.2v-12h25.1h31h25.1V955.9z M1304,936h-23v-23h23V936z M1375.4,905      H1308h-31h-67.4c-4.2,0-7.5-3.4-7.5-7.5V880h180.8v17.4C1382.9,901.6,1379.6,905,1375.4,905z"/>
				<path class="st1" d="M960.8,768.3v77.4c0,2.2,1.8,4,4,4h143.8c2.2,0,4-1.8,4-4v-77.4c0-2.2-1.8-4-4-4H964.8      C962.6,764.3,960.8,766.1,960.8,768.3z M968.8,772.3h135.8v69.4H968.8V772.3z"/>
				<path class="st1" d="M1001.4,782.4h-11.9c-3,0-5.4,2.4-5.4,5.4v11.9c0,3,2.4,5.4,5.4,5.4h11.9c3,0,5.4-2.4,5.4-5.4v-11.9      C1006.8,784.8,1004.4,782.4,1001.4,782.4z"/>
				<path class="st1" d="M1017.1,805.1h11.9c3,0,5.4-2.4,5.4-5.4v-11.9c0-3-2.4-5.4-5.4-5.4h-11.9c-3,0-5.4,2.4-5.4,5.4v11.9      C1011.7,802.7,1014.1,805.1,1017.1,805.1z"/>
				<path class="st1" d="M1056.4,782.4h-11.9c-3,0-5.4,2.4-5.4,5.4v11.9c0,3,2.4,5.4,5.4,5.4h11.9c3,0,5.4-2.4,5.4-5.4v-11.9      C1061.8,784.8,1059.4,782.4,1056.4,782.4z"/>
				<path class="st1" d="M1083.9,782.4h-11.9c-3,0-5.4,2.4-5.4,5.4v11.9c0,3,2.4,5.4,5.4,5.4h11.9c3,0,5.4-2.4,5.4-5.4v-11.9      C1089.3,784.8,1086.9,782.4,1083.9,782.4z"/>
				<path class="st1" d="M1001.4,808.9h-11.9c-3,0-5.4,2.4-5.4,5.4v11.9c0,3,2.4,5.4,5.4,5.4h11.9c3,0,5.4-2.4,5.4-5.4v-11.9      C1006.8,811.3,1004.4,808.9,1001.4,808.9z"/>
				<path class="st1" d="M1083.9,808.9h-11.9c-3,0-5.4,2.4-5.4,5.4v11.9c0,3,2.4,5.4,5.4,5.4h11.9c3,0,5.4-2.4,5.4-5.4v-11.9      C1089.3,811.3,1086.9,808.9,1083.9,808.9z"/>
				<path class="st1" d="M1056.4,808.9h-39.4c-3,0-5.4,2.4-5.4,5.4v11.9c0,3,2.4,5.4,5.4,5.4h39.4c3,0,5.4-2.4,5.4-5.4v-11.9      C1061.8,811.3,1059.4,808.9,1056.4,808.9z"/>
				<path class="st1" d="M1005.1,873h-33.2c-7.1,0-12.8,5.7-12.8,12.8v66.4c0,7.1,5.7,12.8,12.8,12.8h33.2c7.1,0,12.8-5.7,12.8-12.8      v-66.4C1017.9,878.7,1012.1,873,1005.1,873z M1009.9,952.2c0,2.7-2.2,4.8-4.8,4.8h-33.2c-2.7,0-4.8-2.2-4.8-4.8v-66.4      c0-2.7,2.2-4.8,4.8-4.8h12.6v13.3c-1.8,1.3-3,3.4-3,5.7c0,2.4,1.2,4.5,3,5.7v7.8c0,2.2,1.8,4,4,4c2.2,0,4-1.8,4-4v-7.8      c1.8-1.3,3-3.4,3-5.7c0-2.4-1.2-4.5-3-5.7V881h12.6c2.7,0,4.8,2.2,4.8,4.8V952.2z"/>
				<path class="st1" d="M1315,552.9c0-23.7-19.3-43-43-43s-43,19.3-43,43c0,23.7,19.3,43,43,43S1315,576.6,1315,552.9z M1272,587.9      c-19.3,0-35-15.7-35-35c0-19.3,15.7-35,35-35c19.3,0,35,15.7,35,35C1307,572.2,1291.3,587.9,1272,587.9z"/>
				<path class="st1" d="M1288.6,535.4c-1.6-1.5-4.1-1.5-5.7,0.2c-1.5,1.6-1.5,4.1,0.2,5.7c3.2,3.1,5,7.2,5,11.7      c0,8.9-7.2,16.1-16.1,16.1c-8.9,0-16.1-7.2-16.1-16.1c0-4.5,1.8-8.6,5-11.7c1.6-1.5,1.7-4.1,0.2-5.7c-1.5-1.6-4.1-1.7-5.7-0.2      c-4.9,4.6-7.5,10.8-7.5,17.5c0,13.3,10.8,24.1,24.1,24.1c13.3,0,24.1-10.8,24.1-24.1C1296.1,546.3,1293.3,539.9,1288.6,535.4z"/>
				<path class="st1" d="M1272,550c2.2,0,4-1.8,4-4v-18.3c0-2.2-1.8-4-4-4c-2.2,0-4,1.8-4,4V546C1268,548.2,1269.8,550,1272,550z"/>
				<path class="st1" d="M1088,689.4v-65.3c0-12.2-9.9-22-22-22h-43.3v-46.7c0-2.2-1.8-4-4-4h-80c-2.2,0-4,1.8-4,4v46.7h-1.3v8h1.3      v25.3c0,2.2,1.8,4,4,4h80c2.2,0,4-1.8,4-4v-25.3h43.3c7.7,0,14.1,6.3,14.1,14v65.3c0,7.7-6.3,14.1-14.1,14.1H933.4v8H1066      C1078.1,711.5,1088,701.6,1088,689.4z M1014.7,631.4h-72v-25.3v-46.7h72v46.7V631.4z"/>
				<path class="st1" d="M1334.7,624.2v65.3c0,12.2,9.9,22,22,22h43.3v-8h-43.3c-7.7,0-14-6.3-14-14.1v-65.3c0-7.7,6.3-14,14-14      h43.3v-8h-43.3C1344.6,602.1,1334.7,612,1334.7,624.2z"/>
				<path class="st1" d="M1001.4,568.1H956c-2.2,0-4,1.8-4,4c0,2.2,1.8,4,4,4h45.3c2.2,0,4-1.8,4-4      C1005.4,569.9,1003.6,568.1,1001.4,568.1z"/>
				<path class="st1" d="M1001.4,586.8H956c-2.2,0-4,1.8-4,4c0,2.2,1.8,4,4,4h45.3c2.2,0,4-1.8,4-4      C1005.4,588.6,1003.6,586.8,1001.4,586.8z"/>
				<path class="st1" d="M1001.4,605.4H956c-2.2,0-4,1.8-4,4c0,2.2,1.8,4,4,4h45.3c2.2,0,4-1.8,4-4      C1005.4,607.2,1003.6,605.4,1001.4,605.4z"/>
				<circle class="st1" cx="1063.3" cy="626.2" r="4.7"/>
				<circle class="st1" cx="1063.3" cy="644.7" r="4.7"/>
				<path class="st1" d="M1153.3,564.1h17.2c2.2,0,4-1.8,4-4v-17.2c0-2.2-1.8-4-4-4h-17.2c-2.2,0-4,1.8-4,4v4.6H1092v-34.2      c0-2.2-1.8-4-4-4h-48.9c-2.2,0-4,1.8-4,4c0,2.2,1.8,4,4,4h44.9v34.2c0,2.2,1.8,4,4,4h61.3v4.6      C1149.3,562.3,1151.1,564.1,1153.3,564.1z M1157.3,546.8h9.2v9.2h-9.2V546.8z"/>
				<path class="st1" d="M1157.2,917.4H1140c-2.2,0-4,1.8-4,4v4.6h-85.5c-2.2,0-4,1.8-4,4c0,2.2,1.8,4,4,4h85.5v4.6c0,2.2,1.8,4,4,4      h17.2c2.2,0,4-1.8,4-4v-17.2C1161.2,919.1,1159.4,917.4,1157.2,917.4z M1153.2,934.6h-9.2v-9.2h9.2V934.6z"/>
				<path class="st1" d="M1298.2,739c2.2,0,4-1.8,4-4v-70l12.7-12.7c0.7-0.7,1.2-1.8,1.2-2.8v-23.2c0-2.2-1.8-4-4-4      c-2.2,0-4,1.8-4,4v21.6l-12.7,12.7c-0.8,0.7-1.2,1.8-1.2,2.8V735C1294.2,737.2,1296,739,1298.2,739z"/>
				<path class="st1" d="M1272,612.5v109.1c0,2.2,1.8,4,4,4c2.2,0,4-1.8,4-4V612.5c0-2.2-1.8-4-4-4      C1273.8,608.5,1272,610.3,1272,612.5z"/>
				<path class="st1" d="M1166.7,892h-63.3c-1.1,0-2.1,0.4-2.8,1.2l-12.9,12.9h-37.2c-2.2,0-4,1.8-4,4c0,2.2,1.8,4,4,4h38.8      c1.1,0,2.1-0.4,2.8-1.2l12.9-12.9h61.6c2.2,0,4-1.8,4-4C1170.7,893.8,1168.9,892,1166.7,892z"/>
				<path class="st1" d="M1157.6,778.4c-7.2,0-13,5.9-13,13s5.9,13,13,13c7.2,0,13-5.9,13-13S1164.8,778.4,1157.6,778.4z       M1157.6,796.5c-2.8,0-5-2.3-5-5c0-2.8,2.3-5,5-5c2.8,0,5,2.3,5,5C1162.7,794.2,1160.4,796.5,1157.6,796.5z"/>
				<path class="st1" d="M1345.2,534.3c0,7.2,5.9,13,13,13c7.2,0,13-5.9,13-13s-5.9-13-13-13      C1351.1,521.3,1345.2,527.1,1345.2,534.3z M1363.3,534.3c0,2.8-2.3,5-5,5c-2.8,0-5-2.3-5-5s2.3-5,5-5      C1361.1,529.3,1363.3,531.5,1363.3,534.3z"/>
				<circle class="st1" cx="1131.8" cy="590.8" r="8.6"/>
				<circle class="st1" cx="1207.9" cy="509.9" r="8.6"/>
				<circle class="st1" cx="1202.1" cy="944" r="8.6"/>
				<circle class="st1" cx="1108.6" cy="735" r="8.6"/>
				<path class="st1" d="M1018.4,735c0-7.2-5.9-13-13-13s-13,5.9-13,13s5.9,13,13,13S1018.4,742.2,1018.4,735z M1000.3,735      c0-2.8,2.3-5,5-5s5,2.3,5,5s-2.3,5-5,5S1000.3,737.8,1000.3,735z"/>
				<path class="st1" d="M1380.4,735c0-7.2-5.9-13-13-13c-7.2,0-13,5.9-13,13s5.9,13,13,13C1374.5,748,1380.4,742.2,1380.4,735z       M1362.3,735c0-2.8,2.3-5,5-5s5,2.3,5,5s-2.3,5-5,5S1362.3,737.8,1362.3,735z"/>
				<path class="st1" d="M1367.3,936.9c-7.2,0-13,5.9-13,13s5.9,13,13,13c7.2,0,13-5.9,13-13S1374.5,936.9,1367.3,936.9z       M1367.3,955c-2.8,0-5-2.3-5-5c0-2.8,2.3-5,5-5s5,2.3,5,5C1372.4,952.7,1370.1,955,1367.3,955z"/>
				<path class="st1" d="M963,513.2c0,7.2,5.9,13,13,13c7.2,0,13-5.9,13-13s-5.9-13-13-13C968.9,500.2,963,506,963,513.2z       M981.1,513.2c0,2.8-2.3,5-5,5c-2.8,0-5-2.3-5-5s2.3-5,5-5C978.8,508.2,981.1,510.4,981.1,513.2z"/>
			</g>
		</g>
	</g>
</g>
</svg>
