<svg width="44" height="32" viewBox="0 0 44 32" fill="none" xmlns="http://www.w3.org/2000/svg">
<path d="M30.9989 25.9838C30.5566 25.9838 30.1143 26.0266 29.6862 25.9981C26.5045 25.7841 23.6225 24.7711 21.7106 22.2172C18.2293 17.5516 18.3292 13.3712 21.8676 8.76275C22.3955 8.07791 22.8235 7.25038 23.5511 6.76528C23.6082 6.66541 23.6795 6.56553 23.7651 6.47993C23.9221 6.29445 24.1076 6.16604 24.3216 6.0947C24.4072 6.0519 24.4928 6.00909 24.5784 5.99483C24.7354 5.86642 24.9208 5.78081 25.1348 5.72374C25.3917 5.52399 25.7056 5.40985 26.1051 5.40985C26.1336 5.40985 26.1621 5.40985 26.1907 5.40985C26.3619 5.35278 26.5473 5.32425 26.7471 5.32425C26.7756 5.32425 26.8184 5.32425 26.847 5.32425C28.8016 5.19584 30.7991 5.35278 32.6967 4.99609C34.2947 4.69647 34.9795 1.99988 33.7668 1.25796C32.7681 0.64445 31.5553 0.102277 30.4139 0.0309389C26.3619 -0.225879 22.7236 1.12955 19.6846 3.59786C14.8336 7.52147 13.1072 12.7149 14.1202 18.7359C14.7908 22.7736 17.4446 25.5986 20.4122 28.2381C22.4668 30.0644 25.1777 30.1785 27.6032 31.0346C28.3023 31.2771 29.1155 31.1773 29.886 31.2486C29.886 31.2343 29.886 31.2201 29.886 31.1915C30.3283 31.1915 30.7706 31.2058 31.1986 31.1915C33.0677 31.0917 34.4516 29.8932 34.3946 28.4521C34.3232 26.8827 33.0534 25.9553 30.9989 25.9838Z" fill="#F7F7F7"/>
<path d="M37.2196 28.3808C37.0055 27.4677 36.8914 26.74 36.6489 26.0409C35.4646 22.5168 32.3257 20.5478 28.1025 20.662C25.2918 20.7476 23.8507 20.0485 22.7236 17.9083C25.1491 17.9083 27.489 17.9226 29.8289 17.9083C31.8834 17.894 33.0391 17.0523 33.0962 15.5542C33.139 13.999 31.912 13.043 29.8004 13.0288C27.5033 13.0145 25.1919 13.0288 22.8663 13.0288C23.4798 11.3167 25.1919 10.2751 27.3606 10.2608C33.5528 10.218 35.593 8.67714 37.1482 2.85593C40.5725 4.31123 43.7827 9.71867 43.9824 14.6268C44.225 20.2768 41.9564 24.7996 37.2196 28.3808Z" fill="#F7F7F7"/>
<path d="M0.651517 17.8941C1.10808 18.5361 1.73586 18.693 2.36364 18.8357C3.46225 19.0783 4.57513 19.064 5.65947 18.7644C6.18737 18.6217 6.70101 18.4362 7.1005 17.8798C7.1005 18.5076 7.08624 19.0783 7.1005 19.6632C7.11477 20.4622 7.59987 20.9901 8.24192 20.9473C8.78409 20.9045 9.21212 20.3766 9.21212 19.6918C9.21212 18.6217 9.21212 17.5659 9.21212 16.4958C9.21212 13.7564 9.21212 11.017 9.21212 8.24911C9.79709 8.99103 10.5675 9.14797 11.338 9.26211C12.3938 9.43333 13.4354 9.39052 14.4769 9.0481C14.9192 8.90542 15.3472 8.71994 15.7039 8.20631C15.7039 8.44886 15.7039 8.63434 15.7039 8.83408C15.7039 12.4438 15.7039 16.0535 15.7039 19.649C15.7039 23.9435 13.2356 27.6246 9.74002 28.5377C6.5726 29.3653 3.2625 27.5818 1.65025 24.1861C1.03674 22.8877 0.694318 21.5038 0.665783 20.0057C0.637248 19.3208 0.651517 18.6217 0.651517 17.8941Z" fill="#F7F7F7"/>
<path d="M8.65569 7.30747C8.62715 5.30999 10.325 3.64067 12.3653 3.62641C14.4769 3.61214 16.2318 5.22439 16.2461 7.17906C16.2604 9.2336 14.6053 10.9029 12.5508 10.9315C10.3963 10.96 8.66996 9.36201 8.65569 7.30747Z" fill="#F7F7F7"/>
</svg>
