<svg width="88" height="88" viewBox="0 0 88 88" fill="none" xmlns="http://www.w3.org/2000/svg">
<path d="M44 0C68.3005 0 88 19.6995 88 44C88 68.3005 68.3005 88 44 88C19.6995 88 0 68.3005 0 44C0 19.6995 19.6995 0 44 0ZM48.5049 37.8281C47.1668 37.8281 45.948 38.1779 44.8496 38.877C43.7714 39.5759 42.9125 40.5742 42.2734 41.8721C41.6543 43.1702 41.3447 44.6883 41.3447 46.4258C41.3447 48.1633 41.6543 49.6916 42.2734 51.0098C42.9125 52.3077 43.7714 53.3059 44.8496 54.0049C45.948 54.7039 47.1668 55.0537 48.5049 55.0537C49.6432 55.0537 50.6319 54.8236 51.4707 54.3643C52.3293 53.9049 52.988 53.2856 53.4473 52.5068V54.6641C53.4473 56.9008 52.4492 58.0194 50.4521 58.0195C49.6933 58.0195 49.074 57.8698 48.5947 57.5703C48.1154 57.2707 47.8161 56.8508 47.6963 56.3115H41.9141C42.1338 58.4085 43.0223 60.0669 44.5801 61.2852C46.1379 62.5034 48.2152 63.1123 50.8115 63.1123C52.7487 63.1123 54.3463 62.7325 55.6045 61.9736C56.8827 61.2147 57.8217 60.1962 58.4209 58.918C59.02 57.6598 59.3193 56.2417 59.3193 54.6641V38.0381H53.4473V40.375C52.988 39.5962 52.3293 38.9769 51.4707 38.5176C50.6319 38.0583 49.6432 37.8282 48.5049 37.8281ZM31.1074 37.8281C29.4299 37.8281 27.922 38.178 26.584 38.877C25.266 39.5759 24.2173 40.5741 23.4385 41.8721C22.6796 43.1702 22.2998 44.6883 22.2998 46.4258C22.2998 48.1833 22.6796 49.7116 23.4385 51.0098C24.1974 52.3077 25.2358 53.306 26.5537 54.0049C27.8918 54.7039 29.3995 55.0537 31.0771 55.0537C32.7548 55.0537 34.2625 54.7039 35.6006 54.0049C36.9386 53.3059 37.9872 52.3078 38.7461 51.0098C39.525 49.6916 39.915 48.1633 39.915 46.4258C39.915 44.6883 39.525 43.1702 38.7461 41.8721C37.9872 40.5741 36.9386 39.5759 35.6006 38.877C34.2825 38.178 32.7849 37.8282 31.1074 37.8281ZM70.5137 37.8281C68.8362 37.8282 67.3282 38.178 65.9902 38.877C64.6723 39.5759 63.6235 40.5741 62.8447 41.8721C62.0858 43.1702 61.7071 44.6883 61.707 46.4258C61.707 48.1833 62.0858 49.7116 62.8447 51.0098C63.6036 52.3078 64.6429 53.3059 65.9609 54.0049C67.299 54.7038 68.8068 55.0537 70.4844 55.0537C72.1619 55.0537 73.6698 54.7039 75.0078 54.0049C76.3457 53.3059 77.3945 52.3077 78.1533 51.0098C78.9322 49.6916 79.3213 48.1633 79.3213 46.4258C79.3213 44.6883 78.9322 43.1702 78.1533 41.8721C77.3945 40.5741 76.3457 39.5759 75.0078 38.877C73.6897 38.1779 72.1913 37.8281 70.5137 37.8281ZM8.54297 33.7236V54.8438H20.9756V50.3506H14.4141V33.7236H8.54297ZM31.1074 42.9209C31.9061 42.921 32.5751 43.2204 33.1143 43.8193C33.6734 44.4185 33.9531 45.2875 33.9531 46.4258C33.9531 47.5642 33.6735 48.4434 33.1143 49.0625C32.5751 49.6615 31.8959 49.9609 31.0771 49.9609C30.2585 49.9609 29.5895 49.6614 29.0703 49.0625C28.5511 48.4634 28.291 47.5841 28.291 46.4258C28.291 45.2875 28.5604 44.4185 29.0996 43.8193C29.6388 43.2202 30.3086 42.9209 31.1074 42.9209ZM70.5137 42.9209C71.3125 42.9209 71.9823 43.2202 72.5215 43.8193C73.0807 44.4185 73.3603 45.2875 73.3604 46.4258C73.3604 47.5642 73.0807 48.4434 72.5215 49.0625C71.9823 49.6616 71.3031 49.9609 70.4844 49.9609C69.6655 49.9609 68.9958 49.6616 68.4766 49.0625C67.9573 48.4634 67.6982 47.5841 67.6982 46.4258C67.6983 45.2875 67.9676 44.4185 68.5068 43.8193C69.046 43.2204 69.715 42.921 70.5137 42.9209ZM50.3916 42.9512C51.2504 42.9512 51.9697 43.2608 52.5488 43.8799C53.1479 44.499 53.4472 45.3474 53.4473 46.4258C53.4473 47.5242 53.1479 48.3828 52.5488 49.002C51.9697 49.6211 51.2504 49.9307 50.3916 49.9307C49.513 49.9306 48.7842 49.621 48.2051 49.002C47.626 48.3629 47.3359 47.5041 47.3359 46.4258C47.336 45.3275 47.6261 44.479 48.2051 43.8799C48.7842 43.2609 49.513 42.9513 50.3916 42.9512Z" fill="#1CFF36" fill-opacity="0.97"/>
</svg>
