<svg width="327" height="133" viewBox="0 0 327 133" fill="none" xmlns="http://www.w3.org/2000/svg">
<path fill-rule="evenodd" clip-rule="evenodd" d="M160.949 23.5349C158.766 24.2693 156.277 26.9836 155.212 29.7919C154.055 32.8427 153.615 41.2935 154.386 45.6378C155.422 51.4748 158.962 54.9937 163.818 55.0142C165.073 55.0191 166.692 54.816 167.415 54.5621C168.377 54.2244 168.994 54.2219 169.717 54.5534L170.704 55.006V50.0917C170.704 47.3885 170.639 45.1771 170.559 45.1771C170.48 45.1771 169.911 45.9792 169.295 46.9593C166.472 51.4571 161.867 51.0136 160.484 46.1113C159.801 43.6886 159.81 34.2389 160.497 31.6935C161.836 26.7374 166.659 26.3017 169.074 30.9189C169.634 31.9902 170.24 32.8673 170.419 32.8677C170.599 32.8685 170.69 30.6514 170.623 27.9412C170.518 23.74 170.41 23.0544 169.889 23.2903C169.553 23.4426 168.911 23.5427 168.463 23.5131C168.014 23.4832 166.456 23.3699 164.999 23.2612C163.52 23.1509 161.732 23.2719 160.949 23.5349ZM180.279 23.8003C175.662 25.9526 173.668 31.4047 174.069 40.7753C174.321 46.6479 175.078 49.3463 177.16 51.7956C179.001 53.961 181.276 55.0056 184.15 55.0056C188.359 55.0056 190.994 53.0371 192.767 48.5684C193.616 46.4284 193.707 45.5373 193.716 39.2282C193.727 31.4129 193.193 28.8134 191.035 26.1774C188.592 23.1939 183.835 22.1424 180.279 23.8003ZM221.393 24.0046C217.969 25.61 216.227 28.8602 215.471 35.0573C214.656 41.7312 216.027 49.0209 218.698 52.2165C220.171 53.9799 222.601 55.0056 225.304 55.0056C229.533 55.0056 232.539 52.7257 234.296 48.1852C235.124 46.0461 235.223 45.0745 235.231 39.023C235.239 32.9198 235.148 32.0181 234.305 29.8608C231.95 23.836 226.767 21.4852 221.393 24.0046ZM313.928 23.5176C310.238 24.8161 307.936 28.6497 307.14 34.8239C306.592 39.0673 307.07 45.095 308.222 48.4822C309.62 52.5915 312.862 55.0056 316.984 55.0056C321.33 55.0056 324.306 52.601 325.867 47.8266C327.514 42.7947 327.337 33.0606 325.521 28.811C323.547 24.1905 318.528 21.8987 313.928 23.5176ZM197.64 25.3655C198.345 26.7563 198.411 27.9252 198.411 38.8351C198.411 50.5812 198.395 50.8138 197.448 52.6978L196.485 54.6133H204.528H212.571L212.826 53.3312C212.966 52.626 213.08 50.6468 213.08 48.9327V45.8163L211.552 47.4045C209.737 49.2913 207.998 50.1004 205.759 50.1004H204.116V38.3945C204.116 29.1006 204.238 26.3953 204.706 25.2658L205.297 23.843H201.083H196.87L197.64 25.3655ZM237.936 24.0625C237.936 24.1835 238.219 24.7181 238.566 25.2506C239.496 26.6792 239.483 51.796 238.552 53.2266C238.213 53.7477 237.936 54.2728 237.936 54.3938C237.936 54.5145 239.861 54.6133 242.214 54.6133C244.567 54.6133 246.487 54.4747 246.479 54.3056C246.473 54.1366 246.197 53.6394 245.868 53.2016C245.418 52.6014 245.27 51.1605 245.27 47.3552C245.27 42.6297 245.321 42.3052 246.061 42.3052C247.059 42.3052 247.124 42.4164 249.271 47.7934C250.42 50.6723 250.991 52.6744 250.88 53.4346L250.708 54.6133H258.991C263.546 54.6133 267.273 54.5145 267.273 54.3938C267.273 54.2728 266.978 53.7206 266.617 53.1663C266.098 52.3687 266.035 51.7513 266.315 50.2062L266.668 48.2541L270.203 48.136L273.738 48.0178L274.016 49.8829C274.285 51.6877 274.212 52.379 273.591 53.8954C273.322 54.5551 273.683 54.6133 278.028 54.6133C280.629 54.6133 282.757 54.5087 282.757 54.3807C282.757 54.2531 282.284 53.5245 281.707 52.7618C280.969 51.7882 280.254 49.688 279.305 45.7117C275.48 29.6889 274.57 25.4291 274.809 24.6717C275.06 23.8758 274.899 23.843 270.75 23.843C266.605 23.843 266.447 23.8754 266.851 24.6364C267.175 25.2465 266.571 28.3691 264.234 38.1569C261.395 50.0532 260.072 54.2031 259.12 54.2031C258.633 54.2031 255.996 48.9729 254.116 44.2798L252.715 40.7806L254.087 39.6782C256.201 37.9797 257.188 35.6629 257.158 32.4673C257.118 28.164 255.966 26.0859 252.808 24.6184C251.439 23.9821 250.121 23.8594 244.557 23.852C240.915 23.8471 237.936 23.9419 237.936 24.0625ZM284.805 25.5866C285.523 27.1785 285.591 28.3494 285.591 39.023C285.591 49.7963 285.528 50.8565 284.785 52.5041C284.342 53.488 283.979 54.3647 283.979 54.4529C283.979 54.5411 286.514 54.6133 289.611 54.6133C293.648 54.6133 295.772 54.432 297.111 53.9725C299.785 53.0551 301.964 50.6608 303.159 47.3245C304.035 44.8813 304.147 43.8971 304.13 38.8179C304.107 31.9323 303.317 29.2372 300.514 26.4987C298.22 24.2565 296.545 23.843 289.759 23.843H284.019L284.805 25.5866ZM185.971 28.3416C187.129 29.6299 187.804 33.5045 187.811 38.9004C187.821 47.0758 186.678 50.5106 183.946 50.5106C181.152 50.5106 180.101 47.4168 180.085 39.1457C180.074 32.8538 180.597 29.8444 181.938 28.4942C183.111 27.3131 184.983 27.2421 185.971 28.3416ZM227.333 28.4409C227.793 28.939 228.381 30.0927 228.637 31.0051C229.263 33.2325 229.243 44.8854 228.608 47.1476C227.274 51.9064 223.353 51.6188 221.99 46.6619C221.366 44.3951 221.391 33.5693 222.025 31.2279C222.961 27.7717 225.486 26.4453 227.333 28.4409ZM318.912 28.4585C320.268 29.9367 320.647 32.2458 320.647 39.023C320.647 42.5206 320.447 46.1207 320.203 47.0233C318.982 51.5326 315.242 51.6602 313.772 47.2432C312.588 43.6886 312.886 31.9393 314.224 29.4104C315.295 27.384 317.513 26.9336 318.912 28.4585ZM249.345 28.4762C250.71 29.1708 251.507 31.6812 251.163 34.2048C250.784 36.9852 249.941 37.855 247.383 38.1024L245.27 38.3067V33.1262V27.9457L246.798 27.9519C247.639 27.9551 248.784 28.191 249.345 28.4762ZM295.672 28.5615C297.344 29.7402 298.024 32.901 298.013 39.4333C298.004 44.6027 297.889 45.6337 297.139 47.3019C296.191 49.407 294.616 50.5106 292.557 50.5106H291.314V39.2282V27.9457H293.057C294.015 27.9457 295.192 28.2226 295.672 28.5615ZM271.497 36.3874C272.03 39.078 272.577 41.8793 272.712 42.6129L272.957 43.9463H270.287H267.616L267.836 42.818C268.789 37.9149 270.275 31.2422 270.389 31.3559C270.465 31.4326 270.963 33.6969 271.497 36.3874ZM261.252 61.3705C258.534 62.2251 256.867 63.769 255.379 66.8124C254.034 69.5636 254.031 69.587 254.031 75.7337C254.031 81.7992 254.05 81.9346 255.271 84.3096C256.071 85.865 257.135 87.1778 258.265 88.0021C259.917 89.2079 260.221 89.2796 263.544 89.2513C265.483 89.2345 267.528 89.1586 268.088 89.0823C268.648 89.0064 269.428 89.0856 269.82 89.2591C270.473 89.5476 270.533 89.2234 270.533 85.4276C270.533 83.1469 270.381 81.281 270.194 81.281C270.008 81.281 269.621 81.7233 269.333 82.264C267.952 84.8635 264.367 86.0369 262.129 84.6218C260.261 83.4411 259.531 80.8908 259.531 75.5384C259.531 68.1183 260.947 65.2804 264.648 65.2804C266.561 65.2804 268.27 66.3988 269.289 68.3176C269.601 68.9035 270.008 69.3831 270.194 69.3831C270.381 69.3831 270.533 67.5369 270.533 65.2804C270.533 61.9818 270.418 61.1777 269.946 61.1777C269.623 61.1777 269.258 61.3414 269.135 61.5412C269.012 61.7422 268.226 61.6581 267.38 61.3541C265.454 60.662 263.488 60.6673 261.252 61.3705ZM188.632 61.4124C188.632 61.5506 188.999 62.1332 189.447 62.7068C190.219 63.6947 190.261 64.3593 190.248 75.2849C190.236 84.5115 190.117 87.0248 189.651 87.8453C189.331 88.4095 189.062 88.9633 189.054 89.0762C189.046 89.189 190.873 89.2813 193.114 89.2813C195.355 89.2813 197.189 89.1652 197.189 89.0236C197.189 88.8821 196.908 88.0882 196.564 87.2595C196.108 86.1604 195.97 84.6206 196.055 81.5682L196.17 77.3834L198.469 77.2616C200.52 77.1533 200.855 77.2525 201.584 78.1847C202.032 78.7595 202.511 79.2296 202.647 79.2296C202.782 79.2296 202.894 77.3834 202.894 75.1269C202.894 72.8704 202.786 71.0242 202.653 71.0242C202.521 71.0242 202.084 71.4341 201.681 71.935C201.077 72.6846 200.527 72.8475 198.559 72.8581L196.17 72.8704V69.3831V65.8958L198.206 65.7666C200.999 65.5893 202.546 65.9409 204.327 67.1578C205.159 67.7273 205.92 68.1137 206.016 68.0173C206.112 67.9209 205.952 66.3885 205.662 64.6125L205.135 61.3828L196.883 61.2716C192.345 61.2105 188.632 61.2737 188.632 61.4124ZM208.598 61.373C208.598 61.4805 208.964 62.1726 209.411 62.9115C210.17 64.1645 210.225 64.985 210.226 75.1331C210.228 85.229 210.169 86.1214 209.413 87.5421C208.965 88.3844 208.598 89.1201 208.598 89.1771C208.598 89.2345 212.403 89.2407 217.053 89.1914L225.508 89.1016L225.765 87.9606C225.907 87.3329 226.038 85.6196 226.058 84.1529C226.087 81.9547 226.005 81.6031 225.59 82.152C224.329 83.8198 222.332 84.5599 219.09 84.5615L215.932 84.5632V80.6656V76.768H218.142C219.925 76.768 220.594 76.9731 221.606 77.8302L222.859 78.8924V74.9218V70.9512L221.606 72.0134C220.594 72.8704 219.925 73.0756 218.142 73.0756H215.932V69.3306V65.5852L219.09 65.7834C222.069 65.9705 225.304 67.0298 225.304 67.8179C225.304 68.0017 225.511 68.1523 225.764 68.1523C226.208 68.1523 226.098 66.2019 225.448 62.5111L225.213 61.1777H216.906C212.337 61.1777 208.598 61.2655 208.598 61.373ZM229.379 61.3992C229.379 61.5215 229.791 62.1824 230.296 62.8688C231.185 64.0795 231.216 64.4455 231.333 75.1827C231.435 84.516 231.355 86.448 230.824 87.5204C230.477 88.2199 230.193 88.9022 230.193 89.0368C230.192 89.1713 231.763 89.2214 233.683 89.148L237.174 89.0142L236.536 88.0341C236.019 87.2394 235.899 85.7099 235.901 79.962C235.903 73.7373 235.971 72.996 236.46 73.8961C236.767 74.4602 238.852 78.0604 241.094 81.8964L245.172 88.871L247.258 89.0876L249.345 89.3043L249.359 76.5744C249.371 66.3114 249.487 63.6455 249.956 62.8188C250.276 62.2547 250.545 61.6544 250.553 61.4854C250.561 61.3164 249.009 61.1777 247.104 61.1777C245.199 61.1777 243.646 61.3164 243.653 61.4854C243.66 61.6544 243.935 62.1517 244.264 62.5894C244.729 63.2077 244.863 64.7667 244.863 69.564V75.7423L243.742 73.6479C243.126 72.4959 241.338 69.2194 239.769 66.3672L236.917 61.181L233.148 61.1793C231.075 61.1785 229.379 61.2774 229.379 61.3992ZM274.2 61.3644C274.2 61.4764 274.566 62.1726 275.014 62.9115C275.773 64.1665 275.827 64.9838 275.827 75.3321C275.827 85.6077 275.769 86.5046 275.029 87.7268L274.232 89.0442L282.608 89.1627C287.671 89.2345 291.081 89.125 291.227 88.8862C291.36 88.6692 291.535 86.9153 291.616 84.9886C291.739 82.0769 291.674 81.5916 291.233 82.111C289.508 84.1443 288.433 84.5632 284.943 84.5632H281.535V80.6656V76.768H283.794C285.661 76.768 286.231 76.9461 287.072 77.7937C287.633 78.3578 288.174 78.8194 288.276 78.8194C288.378 78.8194 288.462 77.049 288.462 74.8853V70.9512L287.208 72.0134C286.196 72.8704 285.527 73.0756 283.744 73.0756H281.535V69.3831V65.6907H284.034C286.98 65.6907 289.329 66.3229 290.515 67.4347C290.984 67.8746 291.479 68.1228 291.615 67.9861C291.751 67.8495 291.601 66.3077 291.282 64.5604L290.702 61.3828L282.451 61.2716C277.913 61.2105 274.2 61.2524 274.2 61.3644ZM162.485 74.7166L162.64 76.3577H172.58H182.52V74.7166V73.0756H172.425H162.329L162.485 74.7166ZM298.648 74.7166V76.3577H308.937H319.225V74.7166V73.0756H308.937H298.648V74.7166ZM212.265 103.396V110H213.895H215.525V107.949V105.897L217.053 105.896C219 105.896 221.269 104.756 221.953 103.436C222.733 101.93 222.301 99.4047 221.048 98.1419C220.084 97.1712 219.647 97.0637 216.128 96.9341L212.265 96.7921V103.396ZM227.342 103.397V110H228.768H230.194V107.744C230.194 105.628 230.256 105.487 231.183 105.487C231.954 105.487 232.453 105.983 233.454 107.744C234.665 109.877 234.823 110 236.336 110C237.216 110 237.936 109.905 237.936 109.789C237.936 109.673 237.365 108.56 236.668 107.316L235.401 105.055L236.465 103.984C237.912 102.528 237.949 99.8712 236.545 98.2277C235.608 97.1298 235.372 97.0699 231.452 96.9353L227.342 96.7946V103.397ZM245.368 97.6898C243.38 98.9104 242.421 100.78 242.421 103.436C242.421 106.091 243.38 107.961 245.368 109.182C248.143 110.885 253.09 109.753 254.451 107.103C255.303 105.444 255.303 101.428 254.451 99.7682C254.086 99.0577 253.2 98.1157 252.483 97.6754C250.702 96.5821 247.16 96.5895 245.368 97.6898ZM261.717 97.3513C260.67 97.8617 259.939 99.3498 259.939 100.97C259.939 102.757 261.426 104.136 264.014 104.75C265.807 105.176 266.255 105.446 266.255 106.102C266.255 107.156 264.099 107.436 262.432 106.598C261.4 106.08 261.168 106.094 260.338 106.724C259.126 107.645 259.495 108.624 261.346 109.403C264.215 110.61 268.285 109.877 269.298 107.971C269.828 106.975 269.84 104.842 269.322 103.868C268.908 103.088 266.147 101.795 264.898 101.795C264.497 101.795 263.813 101.529 263.378 101.204C262.628 100.645 262.624 100.577 263.292 99.8938C263.928 99.2443 264.203 99.2267 266.085 99.7124C268.033 100.215 268.228 100.195 269.005 99.4125L269.838 98.5739L268.454 97.7243C266.933 96.7905 263.281 96.5886 261.717 97.3513ZM219.122 100.894C219.311 102.241 218.495 103.025 216.901 103.025C215.564 103.025 215.525 102.978 215.525 101.361V99.696L217.257 99.8224C218.71 99.9278 219.01 100.101 219.122 100.894ZM234.297 100.393C235.194 101.481 234.254 102.392 232.088 102.535L230.194 102.66V101.202C230.194 99.7526 230.205 99.7432 231.978 99.7432C233.108 99.7432 233.958 99.9812 234.297 100.393ZM251.352 100.824C253.342 103.37 251.792 107.128 248.752 107.128C246.662 107.128 245.678 105.975 245.678 103.527C245.678 100.749 246.488 99.7432 248.727 99.7432C250.166 99.7432 250.67 99.9508 251.352 100.824ZM188.632 103.231V104.666H197.189H205.746V103.231V101.795H197.189H188.632V103.231ZM275.423 103.222V104.666H283.572C288.054 104.666 291.859 104.666 292.027 104.666C292.195 104.666 292.332 104.066 292.332 103.333V102L283.878 101.889L275.423 101.778V103.222Z" fill="#29BB29"/>
<path fill-rule="evenodd" clip-rule="evenodd" d="M57.1769 0.414384C42.6683 2.50839 29.4526 8.97217 19.4694 18.8561C12.0671 26.1849 7.34741 33.555 3.65741 43.5486C-0.531407 54.8918 -1.19325 71.2176 2.04012 83.421C2.91933 86.7387 5.66889 93.7833 7.46908 97.3285C9.21533 100.769 13.9885 107.578 17.0877 111.05C26.9386 122.087 40.8799 129.739 55.7352 132.264C62.706 133.449 74.4447 133.169 80.6982 131.67C97.8513 127.557 112.177 117.752 121.757 103.57C129.403 92.2504 133.033 80.0676 133 65.8383C132.968 52.0946 129.295 40.0099 121.729 28.7545C111.921 14.1616 96.283 4.09114 78.3712 0.832537C73.4479 -0.0632753 62.0442 -0.288342 57.1769 0.414384ZM76.8849 5.31039C90.6874 7.7003 102.068 13.7285 111.724 23.7638C120.135 32.5058 125.804 43.772 127.788 55.6925C128.247 58.4479 128.879 69.0515 128.584 69.0511C128.127 69.0503 107.059 46.81 98.3748 37.1601C95.6914 34.1784 93.1215 31.6861 92.593 31.5537C91.5001 31.28 90.6347 31.7808 86.6239 35.0066L83.831 37.2532L82.2145 35.4422C81.3255 34.446 77.5082 30.1248 73.7314 25.8388C67.8462 19.1597 66.7006 18.0465 65.7143 18.0465C64.7337 18.0465 63.0535 19.6466 54.3462 28.8748C48.727 34.8305 43.9011 39.8658 43.6221 40.0641C43.279 40.3086 42.3398 39.818 40.7172 38.5465C36.6943 35.3944 38.0841 34.4621 20.2683 52.2642L4.6595 67.861L4.52892 65.1165C4.14568 57.0461 7.27847 44.7638 11.8882 36.2623C20.9233 19.6009 38.3087 7.71123 57.4145 5.12742C59.1798 4.88899 61.1714 4.61576 61.8406 4.52063C64.0954 4.19963 73.2464 4.68012 76.8849 5.31039ZM64.2726 28.4076L63.6529 31.6071L64.7373 32.4831L65.8218 33.3591L64.5054 36.5311C63.7815 38.2757 62.4842 41.453 61.6228 43.5919C60.7614 45.7308 59.6369 48.19 59.1239 49.0566L58.1907 50.6325L58.0613 49.0571C57.9527 47.7301 58.6863 43.3264 59.4738 40.579C59.66 39.9293 59.5768 39.8949 58.8084 40.3054C58.3249 40.5636 55.811 42.3184 53.2212 44.2052L48.5129 47.6358L47.2837 46.4089L46.0545 45.1819L47.2805 43.8595C47.9549 43.1317 50.1359 40.715 52.1271 38.4886C58.2933 31.5946 64.582 24.898 64.7406 25.0567C64.8241 25.1401 64.6136 26.648 64.2726 28.4076ZM91.4283 41.4234C91.7986 43.1491 92.3639 45.3657 92.6847 46.3498C93.0051 47.3334 93.1928 48.2135 93.1012 48.3045C92.8141 48.5915 86.7813 42.6637 86.7813 42.095C86.7813 41.5708 89.9599 38.3166 90.4919 38.2964C90.6367 38.2907 91.0581 39.6978 91.4283 41.4234ZM37.0722 42.9859C37.6136 43.1932 37.5333 43.4413 36.5726 44.5335C35.9432 45.2487 34.536 47.3427 33.4451 49.187C31.5257 52.431 31.2917 52.6561 26.205 56.1402C23.3135 58.12 20.6897 59.7404 20.3738 59.7404C20.0007 59.7404 20.2732 59.1405 21.1512 58.0297C22.9088 55.8062 35.6902 42.739 36.1079 42.739C36.2839 42.739 36.7178 42.8499 37.0722 42.9859ZM41.0011 61.2584L44.6047 63.9908L44.6794 66.6219C44.7203 68.0691 44.7317 69.6628 44.7045 70.1639L44.655 71.0747H51.7272H58.799V67.7112C58.799 65.6274 58.9921 64.1078 59.306 63.7163C59.926 62.9436 65.851 58.526 66.267 58.526C66.6251 58.526 71.1161 61.8802 72.6888 63.322C73.7338 64.2802 73.804 64.5567 73.804 67.7096V71.0747H81.3065H88.809V67.2587V63.4427L91.9519 60.992C93.6803 59.6445 95.3499 58.5382 95.6614 58.5337C96.2672 58.5256 98.9949 60.5836 101.482 62.9253C103.002 64.3567 103.003 64.3595 103.003 67.7161V71.0747H108.35C115.643 71.0747 115.575 71.0103 115.575 77.8939C115.575 84.6965 115.855 84.4329 108.618 84.4329H103.003V89.8977V95.3624H108.423C113.292 95.3624 113.952 95.4478 114.912 96.2016C115.913 96.9881 115.98 97.2516 115.98 100.415C115.98 103.718 115.947 103.832 114.425 105.749C111.984 108.826 112.075 108.789 107.288 108.646L103.001 108.518L103.002 112.508C103.003 115.981 102.92 116.466 102.361 116.253C102.008 116.118 101.461 116.007 101.145 116.007C100.679 116.007 100.57 115.045 100.57 110.947V105.887H107.058H113.547V102.042V98.196H107.058H100.57V90.1102V82.0248L106.957 81.9131L113.344 81.8018L113.46 77.6526L113.575 73.5035H107.072H100.57V69.3017V65.0999L98.3566 63.4321C97.1395 62.5149 95.9452 61.7644 95.7031 61.7644C95.461 61.7644 94.2667 62.5149 93.0497 63.4321L90.8366 65.0999V90.3511V115.602H89.8228C88.8219 115.602 88.809 115.559 88.809 112.205C88.809 109.02 88.7522 108.794 87.8965 108.581C87.3944 108.455 84.0187 108.346 80.394 108.339L73.804 108.325V111.694C73.804 113.547 73.7083 115.158 73.5915 115.274C73.4751 115.391 72.9276 115.4 72.3749 115.295C71.3764 115.104 71.3708 115.077 71.3708 110.495V105.887H80.0899H88.809L88.8094 101.94L88.8098 97.9936L80.0903 98.1102L71.3708 98.2268V90.1155V82.0042H80.0899H88.809V77.7538V73.5035H80.0899H71.3708V69.6292C71.3708 65.3659 71.4875 65.6039 68.2351 63.2447L66.1133 61.7061L63.6756 63.5779L61.2383 65.4501L61.1341 90.2227L61.0295 114.995L59.9143 115.123L58.799 115.251L58.7994 111.885L58.7998 108.518L51.8473 108.612L44.8947 108.706L44.9778 112.154L45.061 115.602H43.6164H42.1719V110.745V105.887H50.6882H59.2046V102.05V98.2126L50.7896 98.1029L42.3747 97.9936L42.2648 89.9989L42.1549 82.0042H50.6797H59.2046V77.7538V73.5035H50.6882H42.1719V69.4976V65.4913L40.7387 64.2357C37.7114 61.5822 37.509 61.5252 35.5762 62.778C34.6313 63.3909 33.4479 64.2648 32.9459 64.7202L32.0334 65.5488V91.1825V116.817H31.0196H30.0057V112.769V108.721H25.5939H21.1824L19.308 106.531L17.434 104.341V100.789C17.434 97.6985 17.5488 97.1144 18.3156 96.2991C19.1519 95.411 19.4771 95.3624 24.6015 95.3624H30.0057V89.8977V84.4329H24.6583C17.3659 84.4329 17.434 84.4973 17.434 77.6138C17.434 70.8112 17.1538 71.0747 24.391 71.0747H30.0057V67.4611V63.8471L33.3514 61.2187C35.1914 59.7732 36.8549 58.5762 37.0475 58.5584C37.2401 58.5406 39.0192 59.7554 41.0011 61.2584ZM19.7918 77.7546L19.6645 82.0058L24.8351 82.005L30.0057 82.0042V77.7538V73.5035H24.9624H19.9195L19.7918 77.7546ZM44.8079 89.8977V95.3624H51.9049H59.0018V89.8977V84.4329H51.9049H44.8079V89.8977ZM73.804 89.8977V95.3624L81.2051 95.3632L88.6062 95.3636L88.4829 89.8985L88.3596 84.4329H81.0818H73.804V89.8977ZM19.8672 102.042V105.887H24.9365H30.0057V102.042V98.196H24.9365H19.8672V102.042Z" fill="url(#paint0_linear_71_15)"/>
<defs>
<linearGradient id="paint0_linear_71_15" x1="66.5" y1="0" x2="66.5" y2="133" gradientUnits="userSpaceOnUse">
<stop offset="0.558312" stop-color="#60DB60"/>
<stop offset="0.9999" stop-color="#2E9F33"/>
<stop offset="1" stop-color="#0F3719"/>
</linearGradient>
</defs>
</svg>
